<?xml version="1.0" encoding="utf-8"?>
<!-- Generator: Adobe Illustrator 25.0.1, SVG Export Plug-In . SVG Version: 6.00 Build 0)  -->
<svg version="1.1" id="레이어_1" xmlns="http://www.w3.org/2000/svg" xmlns:xlink="http://www.w3.org/1999/xlink" x="0px"
	 y="0px" viewBox="0 0 1024 1024" style="enable-background:new 0 0 1024 1024;" xml:space="preserve">
<style type="text/css">
	.st0{fill:#FFF5E0;}
	.st1{fill:#1C1C1C;}
	.st2{fill:#FFC900;}
	.st3{fill:#05F1FD;}
	.st4{fill:#FD9113;}
	.st5{fill:#FDA3FD;}
</style>
<g>
	<g>
		<circle class="st0" cx="502.2" cy="512" r="277.06"/>
		<path class="st1" d="M502.2,805.86c-162.03,0-293.86-131.82-293.86-293.86S340.17,218.14,502.2,218.14S796.06,349.97,796.06,512
			S664.24,805.86,502.2,805.86z M502.2,251.73c-143.52,0-260.27,116.76-260.27,260.27S358.69,772.27,502.2,772.27
			S762.48,655.52,762.48,512S645.72,251.73,502.2,251.73z"/>
	</g>
	<g>
		<path class="st2" d="M831.48,445.85c-3.53-0.77-6.84-0.41-9.33,1.03c-2.21,1.29-3.19,3.7-2.61,6.44
			c0.93,4.45,5.96,9.26,12.24,11.69c17.43,6.71,56.43,25.44,65.73,40.52c3.79,6.15,2.59,11.82-3.59,17.26
			c-13.09,10.54-55.95,24.62-119.12,30.62c-119.97,11.39-253.07-6.09-394.17-24.62l-15.29-1.99c-69.5-8.98-174.53-22.56-225.4-54.29
			c-8.12-5.07-13.88-11.89-15.02-17.8c-0.36-1.9-0.42-3.85-0.17-5.8c3.75-29.2,64.64-44.53,67.35-45.2
			c5.45-1.43,6.56-6.42,2.58-11.59c-3.97-5.19-11.77-8.91-18.15-8.65c-74.28,3.24-162.42,16.4-160.46,60.69
			c1.24,28.06,24.53,56.42,69.23,84.29c28.29,17.64,40.31,22.65,85.68,35.71c11.23,3.23,23.16,6.39,35.47,9.39
			c67.67,16.49,123.32,25.24,202.34,35.61c148.85,19.56,289.45,38.02,423.12,25.34c70.77-6.72,152.78-26.11,170.73-60.34
			c0.13-0.24,0.25-0.48,0.37-0.72c12.86-25.7-6.43-50.41-19.16-62.92C964.92,491.95,923.12,465.63,831.48,445.85z"/>
		<path class="st1" d="M739.01,655.5c-106.6,0-217.02-14.51-332.39-29.66c-79.61-10.45-135.71-19.27-204.13-35.94
			c-12.55-3.06-24.71-6.28-36.14-9.57c-46.8-13.48-60.25-19.1-89.92-37.6C26.75,511.75,0.8,478.84-0.7,444.92
			c-1.26-28.6,20.14-49.66,63.63-62.58c28.03-8.33,66.01-13.59,112.87-15.63c11.99-0.46,24.89,5.63,32.22,15.22
			c5.55,7.21,7.25,15.75,4.64,23.38c-2.47,7.24-8.41,12.58-16.3,14.65c-25.02,6.19-53.59,20.44-54.96,31.1
			c-0.01,0.1-0.02,0.18-0.02,0.26c0.59,1.2,2.95,4.15,7.44,6.95c47.77,29.79,150.61,43.08,218.66,51.88l15.3,1.99
			c140.09,18.39,272.36,35.76,390.42,24.55c58.47-5.55,95.23-17.68,107.6-25.2c-9.1-9-35.56-23.31-55.07-30.81
			c-11.85-4.59-20.52-13.75-22.65-23.93c-2.06-9.85,2.09-19.41,10.57-24.37c6.16-3.58,13.73-4.61,21.36-2.95
			c95.57,20.64,140.08,48.99,160.59,69.14c27.12,26.64,35.29,56.68,22.41,82.41l-0.56,1.09c-25.73,49.09-137.22,64.73-183.96,69.17
			C802.34,654.21,770.83,655.5,739.01,655.5z M147.4,402.11c-30.38,2.5-55.51,6.66-74.91,12.42c-15.09,4.48-40.3,14.2-39.65,28.9
			c0.97,21.89,22.18,46.37,61.34,70.78c26.87,16.75,37.53,21.18,81.45,33.83c10.99,3.16,22.7,6.27,34.8,9.22
			c66.92,16.31,122.11,24.98,200.55,35.27c147.88,19.43,287.56,37.78,419.35,25.28c80.85-7.68,145.6-28.83,157.44-51.42
			c0,0,0.22-0.43,0.22-0.44c8.11-16.21-6.49-34.17-15.91-43.43c-9.93-9.76-31.33-25.6-74.9-41.07c6.19,4.87,11.39,10.02,14.62,15.26
			c8.06,13.07,5.46,27.89-6.77,38.67c-0.19,0.16-0.38,0.32-0.57,0.48c-18.89,15.22-69.16,28.67-128.07,34.26
			c-121.85,11.57-255.93-6.04-397.89-24.68l-15.31-1.99c-70.93-9.17-178.14-23.02-232.12-56.69c-12.32-7.68-20.56-18.2-22.62-28.86
			c-0.71-3.7-0.82-7.44-0.34-11.15C109.04,439.52,114.66,419.06,147.4,402.11z"/>
	</g>
	<g>
		<g>
			<path class="st3" d="M218.83,451.51c44.25-33.47,84.52-69.89,120.56-108.59c-53.85-11.1-106.84-27.65-158.14-49.64
				C189.11,345.8,201.61,398.77,218.83,451.51z"/>
			<path class="st1" d="M215.07,463.53c-5.37-1.68-9.59-5.58-11.03-10.16c-16.71-53.06-28.7-106.29-36.04-159.01
				c-0.63-4.55,1.35-8.92,5.12-11.5c3.77-2.58,8.75-3.01,13.1-1.15c50.51,21.66,102.69,37.95,155.72,48.88
				c4.57,0.94,8.33,4.12,9.91,8.39c1.58,4.27,0.71,8.99-2.37,12.37c-35.69,39.16-75.63,76.09-119.58,110.13
				C226.12,464.42,220.44,465.22,215.07,463.53z M198.18,313.87c6.97,37.79,16.35,75.75,28.19,113.6
				c31.33-24.32,60.59-50.16,87.68-77.25C274.8,340.98,236.07,328.87,198.18,313.87z"/>
		</g>
		<g>
			<path class="st4" d="M411.73,490.8c36.17-41.83,67.98-85.69,95.28-130.9c-54.72,0.07-109.45-5.3-163.34-16.11
				C361.72,393.49,384.42,442.72,411.73,490.8z"/>
			<path class="st1" d="M410.49,503.34c-5.55-0.55-10.42-3.49-12.74-7.68c-26.86-48.48-49.09-98.06-66.67-148.05
				c-1.52-4.31-0.47-9,2.65-12.31c3.13-3.31,7.84-4.77,12.41-3.85c53.07,10.65,106.96,15.94,160.84,15.86
				c4.64-0.01,8.96,2.34,11.36,6.2c2.4,3.86,2.51,8.66,0.19,12.59c-26.88,45.59-58.27,89.88-94.06,132.19
				C421.39,501.95,416.04,503.89,410.49,503.34z M364.11,360.41c14.29,35.51,30.99,70.71,50.09,105.33
				c25.49-30.23,48.7-61.49,69.59-93.53C443.73,371.15,403.73,367.22,364.11,360.41z"/>
		</g>
		<g>
			<path class="st5" d="M607.67,490.02c26.93-48.3,49.24-97.71,66.91-147.56c-53.82,11.25-108.52,17.06-163.23,17.42
				C538.99,404.88,571.15,448.48,607.67,490.02z"/>
			<path class="st1" d="M609,502.54c-5.55,0.59-10.91-1.3-14.03-4.93c-36.13-42.02-67.89-86.06-95.13-131.43
				c-2.35-3.92-2.28-8.72,0.09-12.59c2.37-3.88,6.67-6.26,11.31-6.29c53.88-0.36,107.74-6.07,160.74-17.15
				c4.57-0.95,9.29,0.46,12.44,3.75c3.15,3.29,4.23,7.96,2.75,12.29c-17.19,50.14-39.03,99.89-65.51,148.59
				C619.4,498.97,614.55,501.95,609,502.54z M534.65,372c21.15,31.87,44.61,62.95,70.35,92.97c18.82-34.77,35.24-70.1,49.26-105.73
				C614.67,366.37,574.7,370.62,534.65,372z"/>
		</g>
		<g>
			<path class="st3" d="M800.31,449.16c16.81-52.89,28.9-105.96,36.35-158.55c-51.16,22.43-104.05,39.41-157.82,50.95
				C715.2,379.96,755.78,416.05,800.31,449.16z"/>
			<path class="st1" d="M804.17,461.15c-5.36,1.73-11.05,0.98-14.86-1.92c-44.23-33.68-84.48-70.29-120.5-109.15
				c-3.11-3.35-4.01-8.07-2.47-12.35c1.55-4.28,5.29-7.49,9.85-8.47c52.96-11.36,105.04-28.09,155.41-50.17
				c4.34-1.9,9.32-1.52,13.12,1.04c3.79,2.55,5.82,6.91,5.22,11.46c-6.93,52.8-18.51,106.13-34.81,159.33
				C813.73,455.49,809.54,459.42,804.17,461.15z M704.25,348.65c27.32,26.87,56.79,52.47,88.33,76.53
				c11.54-37.96,20.64-75.99,27.31-113.84C782.09,326.66,743.44,339.09,704.25,348.65z"/>
		</g>
		<path class="st1" d="M896.78,275.57c-244.54,129.24-537.26,129.24-781.8,0c-6.76-3.57-9.47-11.51-6.1-17.6
			c3.37-6.09,11.35-8.12,17.87-4.67c237.18,125.35,521.09,125.35,758.27,0c6.52-3.44,14.5-1.41,17.87,4.67
			C906.25,264.05,903.54,271.99,896.78,275.57z"/>
	</g>
</g>
</svg>
