<?xml version="1.0" encoding="utf-8"?>
<!-- Generator: Adobe Illustrator 25.0.1, SVG Export Plug-In . SVG Version: 6.00 Build 0)  -->
<svg version="1.1" id="레이어_1" xmlns="http://www.w3.org/2000/svg" xmlns:xlink="http://www.w3.org/1999/xlink" x="0px"
	 y="0px" viewBox="0 0 1024 1024" style="enable-background:new 0 0 1024 1024;" xml:space="preserve">
<style type="text/css">
	.st0{fill:#C5D21E;}
</style>
<g>
	<path class="st0" d="M453.8,471.86c-3.87-14.11-9.53-26.59-16.79-37.11c-7.29-10.56-16.4-19-27.08-25.09
		c-10.83-6.16-23.36-9.28-37.24-9.28c-13.74,0-26.25,3.13-37.12,9.29c-10.76,6.08-19.92,14.52-27.2,25.08
		c-7.27,10.52-12.92,23-16.79,37.11c-3.87,14.13-5.85,29.72-5.85,46.34c0,16.16,1.96,31.41,5.85,45.34
		c3.87,13.91,9.51,26.16,16.76,36.43c7.3,10.37,16.46,18.65,27.2,24.62c10.9,6.06,23.41,9.13,37.15,9.13
		c13.89,0,26.43-3.07,37.26-9.12c10.66-5.96,19.77-14.25,27.09-24.63c7.26-10.27,12.89-22.53,16.76-36.43
		c3.89-13.94,5.85-29.19,5.85-45.34C459.65,501.62,457.67,486.04,453.8,471.86z M425.26,518.19c0,10.34-0.95,20.51-2.84,30.21
		c-1.93,9.96-5.04,19.04-9.27,27.02c-4.27,8.05-9.84,14.54-16.59,19.3c-13.13,9.31-34.56,9.33-47.76-0.01
		c-6.74-4.75-12.32-11.25-16.59-19.3c-4.22-7.96-7.34-17.04-9.25-27c-1.89-9.75-2.85-19.92-2.85-30.21c0-10.72,0.95-21.25,2.83-31.3
		c1.93-10.27,5.04-19.59,9.27-27.68c4.26-8.16,9.84-14.72,16.61-19.49c6.58-4.66,14.62-7.02,23.89-7.02s17.3,2.36,23.88,7.02
		c6.76,4.78,12.35,11.34,16.62,19.5c4.24,8.12,7.34,17.44,9.25,27.68C424.31,496.92,425.26,507.46,425.26,518.19z"/>
	<path class="st0" d="M248.02,404.97c-8.36,0-15.16,6.19-15.16,13.8c0,31.5-13.8,76.54-36.04,117.53
		c-21.3,39.3-45.6,66.05-61.9,68.15c-7,0.93-13.96-7.33-19.37-22.89c-6.13-17.63-10.45-36.22-12.84-55.28
		c14.69-20.77,32.41-47.96,42-76.54c5.73-17.08,5.27-33.94-1.3-47.49c-5.6-11.55-15.45-18.33-27.82-18.6
		c-12.02,0-23.25,7.25-30.04,19.39c-14.19,25.39-14.77,51.9-15.32,77.54l-0.04,1.77c-0.26,12.49,0.16,24.91,1.28,36.96l-2.65,3.64
		c-17.18,23.54-37.31,47.47-65.22,77.57c-2.72,2.92-3.96,6.64-3.49,10.46c0.47,3.77,2.53,7.11,5.79,9.39
		c6.2,4.35,15.84,3.42,20.88-2.01c20.52-22.12,36.97-41.05,51.11-58.86c2.39,10.36,5.32,20.55,8.75,30.42
		c12.14,34.91,32.15,42.24,46.8,42.24c1.9,0,3.85-0.13,5.78-0.37c38.28-4.93,71.83-59.36,84.48-82.53
		c24.38-44.68,39.52-94.68,39.52-130.5C263.19,411.17,256.38,404.97,248.02,404.97z M115.68,441.67
		c-3.51,10.46-8.36,21.19-14.98,32.99c0.55-21.16,1.87-41.16,11.87-59.06c0.89-1.6,1.76-2.65,2.44-3.33
		c0.19,0.32,0.41,0.7,0.63,1.16C119.26,420.92,119.28,430.95,115.68,441.67z"/>
	<g>
		<path class="st0" d="M518.02,492.69c8.74,0,17.56-6.88,17.56-22.3c-0.13-16.65-9.51-22.56-17.49-22.56
			c-10.51,0-17.56,9.05-17.56,22.52c0,6.24,1.53,11.63,4.39,15.57C508.08,490.29,512.74,492.69,518.02,492.69z"/>
		<path class="st0" d="M518.1,541.74c-10.51,0-17.56,9.05-17.56,22.52c0,6.24,1.53,11.63,4.39,15.57c3.16,4.37,7.81,6.78,13.09,6.78
			c8.74,0,17.56-6.88,17.56-22.31C535.45,547.64,526.07,541.74,518.1,541.74z"/>
	</g>
	<path class="st0" d="M744.55,471.86c-3.87-14.11-9.53-26.59-16.79-37.11c-7.29-10.56-16.4-19-27.08-25.09
		c-10.83-6.16-23.36-9.28-37.24-9.28c-13.74,0-26.25,3.13-37.12,9.29c-10.76,6.08-19.92,14.52-27.2,25.08
		c-7.27,10.52-12.92,23-16.79,37.11c-3.87,14.13-5.85,29.72-5.85,46.34c0,16.16,1.96,31.41,5.85,45.34
		c3.87,13.91,9.51,26.16,16.76,36.43c7.3,10.37,16.46,18.65,27.2,24.62c10.9,6.06,23.41,9.13,37.15,9.13
		c13.89,0,26.43-3.07,37.26-9.12c10.66-5.96,19.77-14.25,27.09-24.63c7.26-10.27,12.89-22.53,16.76-36.43
		c3.89-13.94,5.85-29.19,5.85-45.34C750.4,501.62,748.42,486.04,744.55,471.86z M716.02,518.19c0,10.34-0.95,20.51-2.84,30.21
		c-1.93,9.96-5.04,19.04-9.27,27.02c-4.27,8.05-9.84,14.54-16.59,19.3c-13.13,9.31-34.56,9.33-47.76-0.01
		c-6.74-4.75-12.32-11.25-16.59-19.3c-4.22-7.96-7.34-17.04-9.25-27c-1.89-9.75-2.85-19.92-2.85-30.21c0-10.72,0.95-21.25,2.83-31.3
		c1.93-10.27,5.04-19.59,9.27-27.68c4.26-8.16,9.84-14.72,16.61-19.49c6.58-4.66,14.62-7.02,23.89-7.02c9.27,0,17.3,2.36,23.88,7.02
		c6.76,4.78,12.35,11.34,16.62,19.5c4.24,8.12,7.34,17.44,9.25,27.68C715.07,496.92,716.02,507.46,716.02,518.19z"/>
	<path class="st0" d="M1008.84,413.14c-8.36,0-15.17,6.19-15.17,13.8c0,31.5-13.8,76.54-36.04,117.53
		c-21.3,39.3-45.6,66.05-61.9,68.15c-9.51,1.19-16.23-13.9-19.36-22.89c-6.14-17.61-10.46-36.2-12.85-55.28
		c14.69-20.77,32.41-47.96,42-76.54c5.73-17.08,5.27-33.94-1.3-47.49c-5.6-11.55-15.45-18.33-27.82-18.6
		c-12.01,0-23.24,7.25-30.04,19.39c-14.18,25.36-14.75,51.87-15.31,77.51l-0.05,1.81c-0.26,12.39,0.17,24.82,1.28,36.95l-2.65,3.65
		c-17.18,23.54-37.3,47.47-65.22,77.57c-2.72,2.92-3.96,6.64-3.49,10.46c0.46,3.75,2.52,7.09,5.79,9.39
		c6.2,4.36,15.84,3.42,20.88-2.01c20.52-22.12,36.97-41.05,51.11-58.86c2.39,10.36,5.32,20.55,8.75,30.42
		c12.14,34.91,32.15,42.24,46.8,42.24c1.9,0,3.85-0.13,5.78-0.37c38.28-4.93,71.83-59.36,84.48-82.53
		c24.38-44.66,39.52-94.66,39.52-130.5C1024,419.33,1017.2,413.14,1008.84,413.14z M876.49,449.84
		c-3.51,10.46-8.36,21.19-14.98,32.99c0.55-21.16,1.87-41.16,11.87-59.06c0.89-1.6,1.76-2.65,2.44-3.33
		c0.19,0.32,0.41,0.7,0.64,1.16C880.07,429.08,880.09,439.1,876.49,449.84z"/>
</g>
</svg>
