<?xml version="1.0" encoding="utf-8"?>
<!-- Generator: Adobe Illustrator 25.0.1, SVG Export Plug-In . SVG Version: 6.00 Build 0)  -->
<svg version="1.1" id="레이어_1" xmlns="http://www.w3.org/2000/svg" xmlns:xlink="http://www.w3.org/1999/xlink" x="0px"
	 y="0px" viewBox="0 0 1024 1024" style="enable-background:new 0 0 1024 1024;" xml:space="preserve">
<style type="text/css">
	.st0{opacity:0.1;}
	.st1{fill:#00FFFF;}
	.st2{fill:#FF8D00;}
	.st3{fill:#FFC900;}
	.st4{fill:#A3E500;}
	.st5{fill:#FF9CFF;}
</style>
<g class="st0">
	<path class="st1" d="M0.02,516.69c10.72-0.43,21.45-0.61,32.18-0.41l2.01,0.03l2.01,0.06l4.02,0.13c2.68,0.13,5.36,0.23,8.04,0.41
		c5.36,0.33,10.71,0.76,16.05,1.34c5.34,0.57,10.66,1.25,15.98,1.98c5.32,0.73,10.63,1.49,15.94,2.18c10.63,1.39,21.3,2.43,32,2.89
		c2.67,0.14,5.35,0.2,8.03,0.29c1.34,0.04,2.68,0.05,4.02,0.08c1.34,0.02,2.68,0.05,4.02,0.05l4.02,0.01c0.67,0.01,1.34,0,2.01-0.01
		l2.01-0.02l4.02-0.04l4.02-0.09l2.01-0.05l1-0.02l1-0.03l4.02-0.14c2.68-0.08,5.35-0.22,8.03-0.34l2.01-0.09
		c0.67-0.03,1.34-0.08,2.01-0.11l4.01-0.23c0.67-0.04,1.34-0.07,2-0.12l2-0.14l4.01-0.28c1.33-0.1,2.67-0.22,4-0.33
		c1.33-0.12,2.67-0.21,4-0.35l4-0.39l1-0.1l1-0.11l1.99-0.22c2.66-0.28,5.31-0.64,7.97-0.97c2.65-0.38,5.3-0.74,7.94-1.17
		c5.28-0.83,10.55-1.79,15.79-2.85c5.25-1.06,10.47-2.22,15.71-3.38c5.24-1.17,10.48-2.33,15.75-3.39
		c5.27-1.06,10.57-2.03,15.89-2.86c2.66-0.43,5.32-0.8,7.99-1.17c2.67-0.33,5.34-0.7,8.01-0.98l2.01-0.23l1-0.11l1-0.1l4.02-0.39
		c1.34-0.14,2.68-0.24,4.02-0.35c1.34-0.11,2.68-0.23,4.02-0.33l4.02-0.28l2.01-0.14c0.67-0.05,1.34-0.08,2.01-0.12l4.03-0.23
		c0.67-0.04,1.34-0.08,2.01-0.11l2.01-0.09c2.69-0.12,5.37-0.26,8.06-0.34l4.03-0.14l1.01-0.03l1.01-0.02l2.02-0.05l4.03-0.09
		l4.03-0.04l2.02-0.02c0.67-0.01,1.35-0.01,2.02-0.01l4.04,0.01c1.35,0,2.69,0.03,4.04,0.05c1.35,0.03,2.69,0.04,4.04,0.08
		c2.69,0.09,5.38,0.15,8.08,0.29c10.77,0.46,21.52,1.51,32.19,2.9c5.34,0.69,10.65,1.46,15.96,2.18c5.31,0.73,10.6,1.41,15.91,1.97
		c5.31,0.57,10.62,1,15.94,1.33c2.66,0.18,5.33,0.28,7.99,0.41l4,0.13c0.67,0.02,1.33,0.05,2,0.06l2,0.03
		c10.67,0.2,21.36,0.02,32.05-0.41c10.68-0.43,21.35-1.11,31.97-2.17l1.99-0.2l1.99-0.22l3.97-0.45c2.64-0.34,5.29-0.65,7.92-1.05
		c5.27-0.75,10.53-1.61,15.76-2.6c5.24-0.99,10.46-2.09,15.68-3.24c5.23-1.15,10.46-2.34,15.74-3.46
		c10.54-2.25,21.21-4.16,31.94-5.49c2.68-0.36,5.37-0.64,8.05-0.94c1.34-0.14,2.69-0.27,4.03-0.4c1.34-0.13,2.69-0.27,4.03-0.37
		l4.03-0.34c0.67-0.06,1.34-0.11,2.02-0.15l2.02-0.14l4.04-0.28l4.04-0.23l2.02-0.12l1.01-0.06l1.01-0.05l4.04-0.19
		c2.69-0.14,5.38-0.21,8.08-0.31l2.02-0.07c0.67-0.02,1.35-0.03,2.02-0.05l4.04-0.09c0.67-0.01,1.35-0.04,2.02-0.04l2.02-0.02
		l4.05-0.04c1.35-0.01,2.7,0.01,4.05,0.01c1.35,0.01,2.7,0,4.05,0.03l4.05,0.07l1.01,0.02l1.01,0.03l2.03,0.06
		c2.7,0.07,5.4,0.22,8.11,0.34c2.7,0.17,5.4,0.31,8.1,0.53c5.4,0.41,10.79,0.95,16.15,1.59c5.37,0.64,10.71,1.38,16.02,2.12
		c5.31,0.74,10.6,1.47,15.89,2.1c5.28,0.63,10.57,1.16,15.86,1.56c2.65,0.21,5.3,0.36,7.95,0.52c2.65,0.12,5.31,0.26,7.96,0.33
		l1.99,0.06l1,0.03l1,0.02l3.99,0.07c1.33,0.03,2.66,0.02,3.99,0.03c1.33,0,2.66,0.01,3.99,0.01l3.99-0.04l2-0.02
		c0.67-0.01,1.33-0.03,2-0.04l4-0.09c0.67-0.02,1.33-0.03,2-0.05l2-0.07c2.67-0.1,5.33-0.17,7.99-0.31l4-0.18l1-0.05l1-0.06l2-0.12
		l3.99-0.23l3.98-0.28l1.99-0.14c0.66-0.05,1.33-0.09,1.99-0.15l3.98-0.33c1.33-0.1,2.65-0.24,3.97-0.37
		c1.32-0.13,2.65-0.25,3.97-0.39c2.64-0.3,5.28-0.58,7.91-0.93c10.54-1.31,20.96-3.18,31.38-5.4c5.21-1.11,10.43-2.29,15.69-3.45
		c5.26-1.16,10.55-2.27,15.88-3.28c5.33-1.01,10.69-1.89,16.07-2.65c2.69-0.4,5.38-0.72,8.07-1.06l4.04-0.46l2.02-0.22l2.02-0.2
		c10.79-1.07,21.58-1.76,32.37-2.19l0.33,9.09c-10.65,0.33-21.28,0.92-31.86,1.87l-1.98,0.18c-0.66,0.06-1.32,0.13-1.98,0.2
		l-3.96,0.41c-2.63,0.32-5.27,0.6-7.89,0.97c-5.25,0.7-10.49,1.5-15.71,2.45c-5.22,0.94-10.43,1.99-15.66,3.09
		c-5.23,1.1-10.48,2.24-15.77,3.32c-10.58,2.16-21.32,3.99-32.09,5.23c-2.69,0.34-5.39,0.59-8.08,0.88
		c-1.35,0.13-2.7,0.24-4.04,0.37c-1.35,0.12-2.7,0.25-4.04,0.34l-4.04,0.3c-0.67,0.05-1.35,0.1-2.02,0.14l-2.02,0.13l-4.04,0.25
		l-4.04,0.2l-2.02,0.1l-1.01,0.05l-1.01,0.04l-4.04,0.15c-2.7,0.11-5.39,0.17-8.09,0.24l-2.02,0.05c-0.67,0.02-1.35,0.02-2.02,0.03
		l-4.05,0.06c-0.67,0.01-1.35,0.02-2.02,0.02l-2.03,0l-4.05,0c-1.35,0-2.7-0.03-4.05-0.04c-1.35-0.02-2.7-0.02-4.05-0.07l-4.06-0.11
		l-1.01-0.03l-1.01-0.04l-2.03-0.08c-2.7-0.09-5.41-0.26-8.11-0.41c-2.7-0.19-5.41-0.36-8.1-0.6c-5.4-0.46-10.79-1.04-16.15-1.73
		c-5.36-0.69-10.7-1.47-16-2.26c-5.31-0.79-10.59-1.57-15.87-2.24c-5.28-0.68-10.56-1.25-15.86-1.7c-2.65-0.24-5.3-0.41-7.95-0.59
		c-2.66-0.14-5.31-0.31-7.97-0.4l-1.99-0.08l-1-0.04l-1-0.03l-3.99-0.1c-1.33-0.04-2.66-0.04-4-0.06c-1.33-0.01-2.66-0.04-4-0.04
		l-4,0l-2,0c-0.67,0-1.33,0.02-2,0.02l-4,0.05c-0.67,0.01-1.33,0.01-2,0.03l-2,0.05c-2.67,0.07-5.34,0.12-8.01,0.24l-4,0.15l-1,0.04
		l-1,0.05l-2,0.1l-4,0.2l-3.99,0.24l-2,0.12c-0.67,0.04-1.33,0.08-2,0.14l-3.99,0.3c-1.33,0.09-2.66,0.22-3.98,0.33
		c-1.33,0.12-2.65,0.23-3.98,0.36c-2.65,0.28-5.3,0.53-7.94,0.86c-10.58,1.22-21.07,3-31.53,5.14c-5.23,1.06-10.47,2.2-15.73,3.31
		c-5.26,1.11-10.55,2.18-15.86,3.13c-5.31,0.96-10.66,1.78-16.01,2.5c-2.68,0.37-5.36,0.67-8.04,0.99l-4.03,0.42l-2.01,0.2
		l-2.01,0.18c-10.75,0.97-21.51,1.56-32.26,1.9c-10.76,0.34-21.53,0.42-32.31,0.13l-2.02-0.05l-2.02-0.08l-4.04-0.16
		c-2.69-0.15-5.39-0.28-8.08-0.48c-5.38-0.38-10.76-0.86-16.11-1.49c-5.36-0.62-10.69-1.35-16.01-2.13
		c-5.32-0.77-10.61-1.58-15.91-2.32c-10.59-1.48-21.2-2.61-31.87-3.16c-2.66-0.16-5.33-0.25-8-0.36c-1.33-0.05-2.67-0.07-4.01-0.11
		c-1.34-0.04-2.67-0.07-4.01-0.08l-4.01-0.05c-0.67-0.01-1.34-0.01-2.01-0.01l-2.01,0l-4.01,0.01l-4.01,0.05l-2.01,0.03l-1,0.01
		l-1,0.03l-4.01,0.1c-2.68,0.06-5.35,0.17-8.02,0.27l-2.01,0.07c-0.67,0.02-1.34,0.06-2,0.09l-4.01,0.2c-0.67,0.03-1.34,0.06-2,0.1
		l-2,0.12l-4,0.25c-1.33,0.09-2.67,0.2-4,0.29c-1.33,0.1-2.67,0.19-4,0.32l-3.99,0.36l-1,0.09l-1,0.1l-1.99,0.21
		c-2.66,0.26-5.31,0.59-7.97,0.9c-2.65,0.35-5.3,0.69-7.94,1.1c-5.29,0.78-10.56,1.69-15.81,2.7c-5.25,1.01-10.49,2.12-15.74,3.24
		c-5.25,1.12-10.5,2.24-15.78,3.25c-5.28,1.02-10.58,1.93-15.9,2.72c-2.66,0.41-5.33,0.75-7.99,1.1c-2.67,0.31-5.34,0.65-8.01,0.91
		l-2.01,0.21l-1,0.1l-1,0.09l-4.02,0.36c-1.34,0.13-2.68,0.21-4.02,0.32c-1.34,0.1-2.68,0.21-4.02,0.3l-4.02,0.25l-2.01,0.12
		c-0.67,0.04-1.34,0.07-2.01,0.1l-4.02,0.2c-0.67,0.03-1.34,0.07-2.01,0.09l-2.01,0.07c-2.68,0.1-5.37,0.21-8.05,0.27l-4.03,0.1
		l-1.01,0.03l-1.01,0.01l-2.01,0.03l-4.03,0.06l-4.03,0.01l-2.01,0c-0.67,0-1.34,0-2.01-0.01l-4.03-0.05
		c-1.34-0.01-2.69-0.05-4.03-0.08c-1.34-0.04-2.69-0.06-4.03-0.11c-2.68-0.11-5.37-0.2-8.05-0.36c-10.73-0.56-21.43-1.69-32.06-3.18
		c-5.32-0.74-10.62-1.55-15.93-2.32c-5.31-0.77-10.62-1.5-15.94-2.12c-5.32-0.62-10.66-1.1-16.01-1.48
		c-2.67-0.2-5.35-0.33-8.03-0.48l-4.02-0.16l-2.01-0.08l-2.01-0.05C21.47,516.26,10.74,516.35,0.02,516.69z"/>
	<path class="st2" d="M0,516.69c10.72-0.35,21.46-0.44,32.18-0.16l2.01,0.05l2.01,0.08l4.02,0.16c2.68,0.15,5.36,0.27,8.04,0.47
		c5.35,0.37,10.7,0.84,16.04,1.46c5.33,0.61,10.65,1.33,15.96,2.1c5.31,0.77,10.61,1.57,15.92,2.3c10.62,1.47,21.28,2.59,31.98,3.13
		c2.67,0.16,5.35,0.25,8.03,0.35c1.34,0.05,2.68,0.07,4.02,0.11c1.34,0.03,2.68,0.07,4.02,0.08l4.02,0.04
		c0.67,0.01,1.34,0.01,2.01,0.01l2.01,0l4.02-0.01l4.02-0.06l2.01-0.03l1-0.02l1-0.03l4.02-0.11c2.68-0.06,5.36-0.18,8.03-0.28
		l2.01-0.08c0.67-0.02,1.34-0.06,2.01-0.1l4.01-0.2c0.67-0.04,1.34-0.06,2.01-0.11l2-0.13l4.01-0.25c1.34-0.09,2.67-0.2,4-0.3
		c1.33-0.11,2.67-0.19,4-0.32l4-0.36l1-0.09l1-0.1l2-0.21c2.66-0.26,5.32-0.6,7.97-0.91c2.65-0.36,5.3-0.7,7.95-1.11
		c5.29-0.79,10.56-1.71,15.81-2.72c5.25-1.02,10.49-2.13,15.74-3.26c5.24-1.12,10.5-2.25,15.78-3.27
		c5.28-1.02,10.59-1.94,15.91-2.74c2.66-0.41,5.33-0.75,8-1.11c2.67-0.31,5.34-0.66,8.02-0.92l2.01-0.21l1-0.1l1-0.09l4.02-0.36
		c1.34-0.13,2.68-0.22,4.02-0.32c1.34-0.1,2.68-0.21,4.02-0.3l4.03-0.25l2.01-0.13c0.67-0.04,1.34-0.07,2.01-0.11l4.03-0.2
		c0.67-0.03,1.34-0.07,2.01-0.1l2.01-0.08c2.69-0.1,5.37-0.22,8.06-0.28l4.03-0.11l1.01-0.03l1.01-0.02l2.02-0.03l4.03-0.06
		l4.04-0.01l2.02,0c0.67,0,1.35,0,2.02,0.01l4.04,0.05c1.35,0.01,2.69,0.05,4.04,0.08c1.35,0.04,2.69,0.06,4.04,0.11
		c2.69,0.11,5.38,0.2,8.07,0.36c10.76,0.55,21.51,1.68,32.17,3.15c5.33,0.73,10.64,1.54,15.94,2.3c5.3,0.77,10.59,1.49,15.9,2.09
		c5.3,0.61,10.61,1.09,15.93,1.45c2.66,0.2,5.32,0.32,7.99,0.47l4,0.16c0.67,0.02,1.33,0.06,2,0.08l2,0.05
		c10.67,0.28,21.36,0.18,32.05-0.16c10.69-0.35,21.36-0.95,31.98-1.92l1.99-0.18l1.99-0.2l3.98-0.42c2.65-0.32,5.29-0.61,7.93-0.98
		c5.28-0.71,10.54-1.52,15.78-2.48c5.24-0.95,10.47-2.01,15.71-3.12c5.24-1.11,10.48-2.26,15.76-3.33c10.56-2.17,21.24-4,31.98-5.24
		c2.68-0.34,5.37-0.6,8.06-0.88c1.34-0.13,2.69-0.25,4.03-0.37c1.34-0.12,2.69-0.25,4.03-0.34l4.04-0.31
		c0.67-0.05,1.35-0.1,2.02-0.14l2.02-0.13l4.04-0.25l4.04-0.2l2.02-0.1l1.01-0.05l1.01-0.04l4.04-0.15
		c2.69-0.12,5.39-0.17,8.08-0.25l2.02-0.05c0.67-0.02,1.35-0.02,2.02-0.03l4.04-0.06c0.67-0.01,1.35-0.02,2.02-0.02l2.02,0
		l4.05-0.01c1.35,0,2.7,0.03,4.05,0.04c1.35,0.02,2.7,0.02,4.05,0.06l4.05,0.1l1.01,0.03l1.01,0.04l2.03,0.08
		c2.7,0.09,5.4,0.26,8.1,0.4c2.7,0.19,5.4,0.36,8.1,0.6c5.39,0.45,10.78,1.03,16.14,1.71c5.36,0.68,10.7,1.46,16,2.24
		c5.31,0.78,10.59,1.56,15.87,2.23c5.28,0.67,10.56,1.24,15.85,1.68c2.64,0.23,5.29,0.4,7.94,0.58c2.65,0.14,5.3,0.3,7.96,0.39
		l1.99,0.08l1,0.04l1,0.03l3.99,0.1c1.33,0.04,2.66,0.04,3.99,0.06c1.33,0.01,2.66,0.04,3.99,0.04l3.99-0.01l2,0
		c0.67,0,1.33-0.02,2-0.02l4-0.06c0.67-0.01,1.33-0.02,2-0.03l2-0.05c2.67-0.07,5.33-0.13,8-0.24l4-0.15l1-0.04l1-0.05l2-0.1
		l3.99-0.2l3.99-0.25l1.99-0.13c0.66-0.04,1.33-0.08,1.99-0.14l3.98-0.3c1.33-0.09,2.65-0.22,3.97-0.34
		c1.32-0.12,2.65-0.23,3.97-0.36c2.64-0.28,5.28-0.54,7.92-0.87c10.55-1.23,20.98-3.01,31.42-5.16c5.22-1.07,10.45-2.21,15.72-3.33
		c5.27-1.12,10.57-2.19,15.91-3.16c5.34-0.97,10.71-1.8,16.09-2.53c2.69-0.38,5.39-0.68,8.08-1l4.05-0.42l2.02-0.21l2.02-0.18
		c10.79-0.99,21.6-1.59,32.39-1.94l0.26,9.09c-10.66,0.25-21.29,0.75-31.87,1.63l-1.98,0.16c-0.66,0.06-1.32,0.12-1.98,0.19
		l-3.96,0.38c-2.63,0.29-5.27,0.56-7.9,0.91c-5.26,0.66-10.5,1.42-15.73,2.33c-5.23,0.9-10.45,1.91-15.69,2.97
		c-5.24,1.06-10.5,2.16-15.8,3.2c-10.6,2.08-21.35,3.83-32.13,4.98c-2.69,0.31-5.39,0.55-8.09,0.81c-1.35,0.12-2.7,0.22-4.05,0.34
		c-1.35,0.11-2.7,0.22-4.05,0.31l-4.05,0.27c-0.67,0.05-1.35,0.09-2.02,0.12l-2.02,0.11l-4.05,0.21l-4.05,0.17l-2.02,0.08
		l-1.01,0.04l-1.01,0.03l-4.04,0.12c-2.7,0.09-5.39,0.12-8.09,0.18l-2.02,0.04c-0.67,0.01-1.35,0.01-2.02,0.02l-4.05,0.02
		c-0.67,0-1.35,0.01-2.02,0.01l-2.03-0.01l-4.05-0.03c-1.35-0.02-2.7-0.05-4.05-0.07c-1.35-0.03-2.7-0.04-4.05-0.1l-4.05-0.14
		l-1.01-0.04l-1.01-0.05l-2.03-0.1c-2.7-0.11-5.41-0.31-8.11-0.47c-2.7-0.21-5.4-0.4-8.1-0.67c-5.4-0.5-10.78-1.12-16.14-1.85
		c-5.36-0.73-10.68-1.56-15.98-2.38c-5.3-0.83-10.57-1.65-15.85-2.37c-5.28-0.72-10.55-1.33-15.85-1.82
		c-2.64-0.26-5.3-0.45-7.95-0.65c-2.65-0.16-5.31-0.35-7.96-0.46l-1.99-0.1l-1-0.05l-1-0.04l-3.99-0.14
		c-1.33-0.05-2.66-0.06-3.99-0.1c-1.33-0.02-2.66-0.06-4-0.07l-4-0.03l-2-0.01c-0.67-0.01-1.33,0.01-2,0.01l-4,0.02
		c-0.67,0.01-1.33,0-2,0.02l-2,0.04c-2.67,0.05-5.34,0.08-8.01,0.17l-4,0.12l-1,0.03l-1,0.04l-2,0.08l-4,0.17l-4,0.21l-2,0.11
		c-0.67,0.03-1.33,0.07-2,0.12l-3.99,0.27c-1.33,0.08-2.66,0.19-3.99,0.3c-1.33,0.11-2.66,0.21-3.98,0.33
		c-2.65,0.26-5.3,0.49-7.95,0.8c-10.59,1.14-21.09,2.84-31.57,4.89c-5.24,1.02-10.48,2.12-15.75,3.19
		c-5.27,1.07-10.56,2.1-15.89,3.01c-5.32,0.92-10.67,1.7-16.03,2.37c-2.68,0.35-5.36,0.63-8.05,0.93L548.6,518l-2.01,0.19
		l-2.02,0.16c-10.75,0.89-21.52,1.4-32.28,1.65c-10.76,0.25-21.53,0.26-32.31-0.12l-2.02-0.07l-2.02-0.09l-4.04-0.2
		c-2.69-0.17-5.38-0.32-8.07-0.54c-5.38-0.42-10.75-0.94-16.1-1.61c-5.35-0.66-10.68-1.43-15.99-2.25
		c-5.31-0.82-10.6-1.67-15.89-2.44c-10.58-1.56-21.18-2.77-31.85-3.41c-2.66-0.18-5.33-0.29-8-0.42c-1.33-0.06-2.67-0.09-4-0.14
		c-1.34-0.05-2.67-0.1-4.01-0.11l-4.01-0.08c-0.67-0.02-1.34-0.02-2-0.03l-2.01-0.01l-4.01-0.02l-4.01,0.02l-2.01,0.01l-1,0.01
		l-1,0.02l-4.01,0.07c-2.68,0.03-5.35,0.13-8.03,0.2l-2.01,0.06c-0.67,0.02-1.34,0.05-2.01,0.08l-4.01,0.17
		c-0.67,0.03-1.34,0.05-2,0.09l-2,0.11l-4.01,0.22c-1.33,0.08-2.67,0.18-4,0.26c-1.33,0.09-2.67,0.17-4,0.29l-4,0.32l-1,0.08l-1,0.1
		l-2,0.19c-2.66,0.24-5.32,0.55-7.97,0.84c-2.65,0.33-5.31,0.65-7.95,1.03c-5.29,0.74-10.57,1.61-15.83,2.58
		c-5.26,0.97-10.51,2.04-15.76,3.12c-5.25,1.08-10.52,2.15-15.81,3.13c-5.29,0.98-10.6,1.85-15.92,2.6c-2.66,0.39-5.33,0.71-8,1.04
		c-2.67,0.29-5.34,0.61-8.02,0.85l-2.01,0.19l-1,0.1l-1,0.08l-4.02,0.33c-1.34,0.12-2.68,0.19-4.02,0.29
		c-1.34,0.09-2.68,0.19-4.02,0.27l-4.02,0.22l-2.01,0.11c-0.67,0.04-1.34,0.06-2.01,0.09l-4.03,0.17c-0.67,0.03-1.34,0.06-2.01,0.08
		l-2.01,0.06c-2.68,0.08-5.37,0.17-8.05,0.21l-4.03,0.07l-1.01,0.02l-1.01,0.01l-2.01,0.01l-4.03,0.02l-4.03-0.02l-2.01-0.01
		c-0.67,0-1.34-0.01-2.01-0.03l-4.03-0.08c-1.34-0.02-2.68-0.07-4.03-0.12c-1.34-0.05-2.68-0.08-4.03-0.14
		c-2.68-0.13-5.37-0.24-8.05-0.43c-10.73-0.64-21.41-1.86-32.03-3.42c-5.31-0.78-10.61-1.63-15.91-2.44
		c-5.3-0.82-10.61-1.59-15.93-2.24c-5.32-0.66-10.66-1.19-16-1.6c-2.67-0.22-5.35-0.37-8.02-0.54l-4.02-0.19l-2.01-0.09l-2.01-0.07
		C21.46,516.43,10.72,516.43,0,516.69z"/>
	<path class="st3" d="M0.02,516.69c10.72-0.26,21.46-0.26,32.18,0.11l2.01,0.07l2.01,0.09l4.02,0.19c2.68,0.17,5.36,0.32,8.03,0.54
		c5.35,0.41,10.7,0.93,16.02,1.6c5.33,0.65,10.64,1.42,15.94,2.24c5.3,0.81,10.6,1.66,15.9,2.44c10.61,1.56,21.26,2.77,31.95,3.4
		c2.67,0.18,5.35,0.29,8.02,0.42c1.34,0.06,2.68,0.09,4.01,0.14c1.34,0.04,2.68,0.09,4.02,0.11l4.02,0.08
		c0.67,0.02,1.34,0.02,2.01,0.02l2.01,0.01l4.02,0.02l4.02-0.03l2.01-0.01l1-0.01l1-0.02l4.02-0.07c2.68-0.04,5.36-0.13,8.03-0.21
		l2.01-0.06c0.67-0.02,1.34-0.05,2.01-0.08l4.01-0.17c0.67-0.03,1.34-0.05,2.01-0.09l2.01-0.11l4.01-0.22
		c1.34-0.08,2.67-0.18,4.01-0.27c1.34-0.09,2.67-0.17,4.01-0.29l4-0.33l1-0.08l1-0.1l2-0.19c2.67-0.24,5.32-0.56,7.98-0.85
		c2.65-0.33,5.31-0.65,7.96-1.04c5.3-0.75,10.57-1.62,15.84-2.59c5.26-0.97,10.51-2.05,15.76-3.13c5.25-1.08,10.52-2.16,15.81-3.14
		c5.29-0.98,10.6-1.85,15.93-2.61c2.66-0.39,5.34-0.71,8.01-1.05c2.68-0.29,5.35-0.61,8.03-0.85l2.01-0.19l1-0.1l1.01-0.08
		l4.02-0.33c1.34-0.12,2.68-0.19,4.02-0.29c1.34-0.09,2.68-0.19,4.03-0.27l4.03-0.22l2.01-0.11c0.67-0.04,1.34-0.06,2.01-0.09
		l4.03-0.17c0.67-0.03,1.34-0.06,2.01-0.08l2.02-0.06c2.69-0.08,5.37-0.17,8.06-0.21l4.03-0.07l1.01-0.02l1.01-0.01l2.02-0.01
		l4.03-0.03l4.03,0.02l2.02,0.01c0.67,0,1.35,0.01,2.02,0.02l4.04,0.08c1.35,0.02,2.69,0.07,4.04,0.11
		c1.35,0.05,2.69,0.08,4.04,0.14c2.69,0.13,5.38,0.24,8.07,0.42c10.76,0.64,21.49,1.86,32.14,3.42c5.32,0.78,10.63,1.63,15.92,2.44
		c5.29,0.81,10.58,1.58,15.88,2.23c5.3,0.66,10.6,1.18,15.92,1.59c2.66,0.22,5.32,0.37,7.98,0.54l4,0.19c0.67,0.03,1.33,0.07,2,0.09
		l2,0.07c10.67,0.37,21.36,0.36,32.05,0.11c10.69-0.26,21.37-0.77,32-1.65l1.99-0.16l1.99-0.19l3.98-0.38
		c2.65-0.3,5.3-0.57,7.94-0.92c5.29-0.67,10.55-1.44,15.8-2.35c5.25-0.9,10.49-1.92,15.73-2.99c5.24-1.06,10.5-2.17,15.79-3.2
		c10.57-2.08,21.27-3.82,32.02-4.98c2.68-0.31,5.38-0.55,8.06-0.81c1.34-0.12,2.69-0.22,4.04-0.34c1.35-0.11,2.69-0.22,4.04-0.31
		l4.04-0.27c0.67-0.05,1.35-0.09,2.02-0.12l2.02-0.11l4.04-0.22l4.04-0.17l2.02-0.08l1.01-0.04l1.01-0.03l4.04-0.12
		c2.69-0.09,5.39-0.13,8.08-0.18l2.02-0.04c0.67-0.01,1.35-0.01,2.02-0.02l4.04-0.03c0.67,0,1.35-0.01,2.02-0.01l2.02,0.01
		l4.05,0.03c1.35,0.01,2.7,0.05,4.05,0.07c1.35,0.03,2.7,0.04,4.05,0.1l4.05,0.14l1.01,0.04l1.01,0.05l2.03,0.1
		c2.7,0.11,5.4,0.3,8.1,0.47c2.7,0.21,5.4,0.4,8.09,0.66c5.39,0.5,10.77,1.12,16.13,1.85c5.36,0.72,10.68,1.55,15.98,2.38
		c5.3,0.83,10.58,1.65,15.85,2.36c5.27,0.72,10.55,1.33,15.84,1.81c2.64,0.26,5.29,0.45,7.94,0.65c2.65,0.16,5.3,0.35,7.96,0.46
		l1.99,0.09l1,0.05l1,0.03l3.99,0.13c1.33,0.05,2.66,0.06,3.99,0.09c1.33,0.02,2.66,0.06,3.99,0.07l3.99,0.02l2,0.01
		c0.67,0.01,1.33-0.01,2-0.01l4-0.03c0.67-0.01,1.33,0,2-0.02l2-0.04c2.67-0.05,5.33-0.08,8-0.18l4-0.12l1-0.03l1-0.04l2-0.08
		l3.99-0.17l3.99-0.21l1.99-0.11c0.66-0.03,1.33-0.07,1.99-0.12l3.98-0.27c1.33-0.08,2.65-0.2,3.98-0.3
		c1.32-0.11,2.65-0.21,3.97-0.33c2.64-0.26,5.29-0.49,7.92-0.8c10.56-1.14,21.01-2.84,31.46-4.89c5.23-1.02,10.47-2.12,15.74-3.19
		c5.28-1.07,10.59-2.1,15.93-3.02c5.34-0.93,10.72-1.71,16.11-2.39c2.69-0.35,5.39-0.63,8.09-0.93l4.05-0.39l2.02-0.19l2.03-0.17
		c10.8-0.9,21.61-1.41,32.4-1.67l0.18,9.09c-10.66,0.16-21.3,0.57-31.89,1.36l-1.99,0.14c-0.66,0.05-1.32,0.11-1.98,0.17l-3.96,0.35
		c-2.64,0.27-5.28,0.52-7.91,0.84c-5.26,0.61-10.51,1.33-15.75,2.19c-5.24,0.85-10.46,1.82-15.71,2.84
		c-5.25,1.02-10.52,2.07-15.83,3.06c-10.62,1.99-21.38,3.65-32.17,4.71c-2.7,0.29-5.4,0.51-8.09,0.75c-1.35,0.11-2.7,0.2-4.05,0.3
		c-1.35,0.1-2.7,0.2-4.05,0.27l-4.05,0.24c-0.67,0.04-1.35,0.08-2.02,0.1l-2.02,0.09l-4.05,0.18l-4.05,0.13l-2.02,0.07l-1.01,0.03
		l-1.01,0.02l-4.05,0.08c-2.7,0.07-5.39,0.08-8.09,0.11l-2.02,0.02c-0.67,0.01-1.35,0-2.02,0l-4.05-0.01c-0.67,0-1.35,0-2.02-0.01
		l-2.03-0.03l-4.05-0.06c-1.35-0.03-2.7-0.07-4.05-0.11c-1.35-0.04-2.7-0.07-4.05-0.13l-4.05-0.17l-1.01-0.04l-1.01-0.06l-2.03-0.11
		c-2.7-0.14-5.4-0.35-8.1-0.54c-2.7-0.23-5.4-0.45-8.09-0.73c-5.39-0.54-10.77-1.21-16.12-1.99c-5.35-0.77-10.67-1.65-15.96-2.52
		c-5.29-0.87-10.56-1.74-15.83-2.5c-5.27-0.76-10.54-1.42-15.83-1.96c-2.64-0.28-5.29-0.49-7.94-0.72c-2.65-0.18-5.3-0.4-7.96-0.53
		l-1.99-0.11l-1-0.06l-1-0.04l-3.99-0.17c-1.33-0.07-2.66-0.09-3.99-0.13c-1.33-0.04-2.66-0.08-4-0.11l-4-0.06l-2-0.03
		c-0.67-0.01-1.33-0.01-2-0.01l-4-0.01c-0.67,0-1.33-0.01-2,0l-2,0.02c-2.67,0.03-5.34,0.04-8.01,0.11l-4,0.08l-1,0.02l-1,0.03
		l-2,0.07l-4,0.13l-4,0.18l-2,0.09c-0.67,0.03-1.33,0.06-2,0.1l-3.99,0.24c-1.33,0.07-2.66,0.17-3.99,0.27
		c-1.33,0.1-2.66,0.19-3.99,0.3c-2.65,0.23-5.31,0.45-7.95,0.73c-10.6,1.05-21.11,2.66-31.61,4.63c-5.25,0.98-10.5,2.03-15.78,3.06
		c-5.28,1.02-10.58,2.01-15.91,2.87c-5.33,0.88-10.68,1.61-16.05,2.24c-2.68,0.33-5.37,0.58-8.05,0.86l-4.03,0.35l-2.02,0.17
		l-2.02,0.15c-10.76,0.8-21.53,1.21-32.29,1.38c-10.76,0.16-21.54,0.08-32.31-0.39l-2.02-0.09l-2.02-0.11l-4.04-0.23
		c-2.69-0.2-5.38-0.36-8.07-0.61c-5.37-0.46-10.74-1.03-16.09-1.75c-5.35-0.7-10.67-1.52-15.97-2.39
		c-5.3-0.86-10.59-1.76-15.87-2.57c-10.57-1.65-21.16-2.95-31.82-3.67c-2.66-0.21-5.33-0.34-8-0.49c-1.33-0.07-2.67-0.12-4-0.18
		c-1.33-0.06-2.67-0.12-4.01-0.15l-4.01-0.11c-0.67-0.02-1.34-0.03-2-0.04l-2.01-0.03l-4.01-0.06l-4.01-0.01l-2.01-0.01l-1,0
		l-1,0.01l-4.01,0.04c-2.68,0.01-5.35,0.08-8.03,0.14l-2.01,0.04c-0.67,0.01-1.34,0.04-2.01,0.06l-4.01,0.13
		c-0.67,0.02-1.34,0.04-2.01,0.07l-2,0.09l-4.01,0.18c-1.34,0.07-2.67,0.15-4,0.23c-1.33,0.08-2.67,0.15-4,0.25l-4,0.29l-1,0.07
		l-1,0.09l-2,0.17c-2.66,0.21-5.32,0.51-7.98,0.77c-2.65,0.31-5.31,0.6-7.96,0.97c-5.3,0.7-10.58,1.52-15.85,2.45
		c-5.27,0.92-10.53,1.95-15.79,2.99c-5.26,1.03-10.54,2.07-15.83,3c-5.3,0.93-10.61,1.76-15.95,2.46c-2.66,0.37-5.34,0.66-8.01,0.97
		c-2.68,0.27-5.35,0.56-8.03,0.78l-2.01,0.17l-1,0.09l-1.01,0.07l-4.02,0.29c-1.34,0.11-2.68,0.17-4.02,0.25
		c-1.34,0.08-2.68,0.16-4.02,0.23l-4.03,0.18l-2.01,0.09c-0.67,0.03-1.34,0.05-2.01,0.07l-4.03,0.13c-0.67,0.02-1.34,0.05-2.01,0.06
		l-2.01,0.04c-2.68,0.05-5.37,0.13-8.05,0.14l-4.03,0.04l-1.01,0.01l-1.01,0l-2.01,0l-4.03-0.01l-4.03-0.06l-2.01-0.03
		c-0.67-0.01-1.34-0.02-2.01-0.04l-4.03-0.11c-1.34-0.03-2.68-0.09-4.03-0.15c-1.34-0.06-2.68-0.11-4.02-0.18
		c-2.68-0.15-5.36-0.29-8.04-0.49c-10.72-0.73-21.4-2.04-32-3.69c-5.3-0.82-10.59-1.72-15.89-2.58c-5.29-0.86-10.59-1.68-15.91-2.38
		c-5.31-0.71-10.64-1.28-15.99-1.74c-2.67-0.25-5.34-0.41-8.02-0.61l-4.01-0.23l-2.01-0.11l-2.01-0.08
		C21.48,516.61,10.75,516.52,0.02,516.69z"/>
	<path class="st4" d="M0,516.68c10.73-0.17,21.46-0.1,32.18,0.36l2.01,0.08l2.01,0.11l4.02,0.22c2.68,0.19,5.36,0.36,8.03,0.6
		c5.35,0.45,10.69,1.02,16.01,1.72c5.32,0.7,10.63,1.51,15.93,2.36c5.3,0.85,10.59,1.74,15.88,2.56
		c10.59,1.64,21.24,2.93,31.92,3.65c2.67,0.2,5.35,0.33,8.02,0.48c1.34,0.07,2.68,0.11,4.01,0.17c1.34,0.06,2.68,0.12,4.01,0.14
		l4.02,0.11c0.67,0.02,1.34,0.03,2.01,0.04l2.01,0.03l4.02,0.05l4.02,0.01l2.01,0l1,0l1-0.01l4.02-0.04
		c2.68-0.01,5.36-0.09,8.04-0.15l2.01-0.04c0.67-0.01,1.34-0.04,2.01-0.06l4.02-0.14c0.67-0.02,1.34-0.04,2.01-0.07l2.01-0.09
		l4.01-0.19c1.34-0.07,2.67-0.16,4.01-0.23c1.34-0.08,2.67-0.15,4.01-0.26l4-0.3l1-0.08l1-0.09l2-0.18
		c2.67-0.22,5.33-0.52,7.99-0.78c2.66-0.31,5.31-0.61,7.96-0.98c5.3-0.71,10.59-1.53,15.86-2.47c5.27-0.93,10.52-1.97,15.79-3.01
		c5.26-1.04,10.53-2.08,15.83-3.01c5.3-0.94,10.62-1.77,15.95-2.48c2.67-0.37,5.34-0.67,8.02-0.98c2.68-0.27,5.35-0.57,8.04-0.79
		l2.01-0.18l1.01-0.09l1.01-0.08l4.02-0.3c1.34-0.11,2.68-0.17,4.03-0.26c1.34-0.08,2.69-0.17,4.03-0.24l4.03-0.19l2.01-0.09
		c0.67-0.03,1.34-0.05,2.02-0.07l4.03-0.14c0.67-0.02,1.34-0.05,2.02-0.06l2.02-0.04c2.69-0.06,5.37-0.13,8.06-0.15l4.03-0.04
		l1.01-0.01l1.01,0l2.02,0l4.03,0.01l4.03,0.05l2.02,0.03c0.67,0.01,1.35,0.02,2.02,0.04l4.04,0.11c1.35,0.03,2.69,0.09,4.04,0.14
		c1.34,0.06,2.69,0.1,4.04,0.17c2.69,0.15,5.38,0.28,8.07,0.49c10.75,0.72,21.48,2.02,32.11,3.67c5.32,0.82,10.61,1.71,15.9,2.56
		c5.29,0.85,10.57,1.66,15.86,2.35c5.29,0.7,10.59,1.26,15.91,1.71c2.66,0.24,5.32,0.41,7.98,0.6l4,0.22c0.67,0.04,1.33,0.08,2,0.11
		l2,0.08c10.67,0.45,21.36,0.53,32.05,0.36c10.69-0.17,21.37-0.6,32.01-1.4l1.99-0.15l1.99-0.17l3.98-0.35
		c2.65-0.28,5.3-0.53,7.95-0.86c5.29-0.62,10.56-1.35,15.82-2.22c5.26-0.86,10.5-1.84,15.76-2.86c5.25-1.02,10.52-2.09,15.81-3.08
		c10.59-2,21.3-3.65,32.06-4.73c2.69-0.29,5.38-0.51,8.07-0.75c1.35-0.11,2.69-0.2,4.04-0.3c1.35-0.1,2.69-0.2,4.04-0.28l4.04-0.24
		c0.67-0.04,1.35-0.08,2.02-0.11l2.02-0.09l4.04-0.18l4.04-0.14l2.02-0.07l1.01-0.03l1.01-0.02l4.04-0.09
		c2.69-0.07,5.39-0.08,8.08-0.12l2.02-0.02c0.67-0.01,1.35,0,2.02,0l4.04,0.01c0.67,0,1.35,0,2.02,0.01l2.02,0.03l4.05,0.06
		c1.35,0.03,2.7,0.07,4.05,0.1c1.35,0.04,2.7,0.06,4.05,0.13l4.05,0.17l1.01,0.04l1.01,0.06l2.02,0.11c2.7,0.13,5.4,0.34,8.1,0.53
		c2.7,0.23,5.39,0.44,8.09,0.73c5.39,0.54,10.76,1.2,16.11,1.97c5.35,0.77,10.67,1.63,15.96,2.5c5.29,0.87,10.56,1.73,15.83,2.48
		c5.27,0.76,10.54,1.41,15.82,1.94c2.64,0.28,5.29,0.49,7.93,0.71c2.65,0.18,5.3,0.39,7.95,0.52l1.99,0.11l1,0.06l1,0.04l3.99,0.16
		c1.33,0.06,2.66,0.08,3.99,0.12c1.33,0.03,2.66,0.08,3.99,0.1l3.99,0.06l2,0.03c0.67,0.01,1.33,0,2,0.01l4,0.01
		c0.67,0,1.33,0.01,2,0l2-0.02c2.67-0.03,5.33-0.04,8-0.12l4-0.09l1-0.02l1-0.03l2-0.07l3.99-0.14l3.99-0.18l1.99-0.09
		c0.66-0.03,1.33-0.06,1.99-0.11l3.98-0.24c1.33-0.07,2.65-0.18,3.98-0.27c1.32-0.1,2.65-0.19,3.97-0.3
		c2.64-0.24,5.29-0.45,7.93-0.74c10.57-1.06,21.03-2.67,31.5-4.65c5.24-0.98,10.48-2.04,15.77-3.07c5.28-1.03,10.61-2.02,15.96-2.9
		c5.35-0.89,10.73-1.63,16.13-2.27c2.69-0.33,5.4-0.59,8.09-0.87l4.05-0.36l2.03-0.18l2.03-0.15c10.81-0.81,21.62-1.24,32.41-1.42
		l0.11,9.09c-10.66,0.08-21.3,0.41-31.9,1.11l-1.99,0.13c-0.66,0.05-1.32,0.1-1.98,0.15l-3.97,0.32c-2.64,0.25-5.28,0.48-7.91,0.78
		c-5.27,0.57-10.52,1.25-15.76,2.07c-5.24,0.81-10.48,1.74-15.73,2.72c-5.25,0.98-10.53,1.99-15.85,2.94
		c-10.63,1.91-21.41,3.48-32.2,4.46c-2.7,0.27-5.4,0.47-8.1,0.68c-1.35,0.1-2.7,0.18-4.05,0.27c-1.35,0.09-2.7,0.18-4.05,0.24
		l-4.05,0.21c-0.68,0.04-1.35,0.07-2.03,0.09l-2.02,0.08l-4.05,0.15l-4.05,0.1l-2.02,0.05l-1.01,0.02l-1.01,0.01l-4.05,0.05
		c-2.7,0.05-5.39,0.04-8.09,0.05l-2.02,0c-0.67,0-1.35-0.01-2.02-0.02l-4.05-0.04c-0.67-0.01-1.35-0.01-2.02-0.03l-2.03-0.05
		l-4.05-0.09c-1.35-0.04-2.7-0.09-4.05-0.14c-1.35-0.05-2.7-0.09-4.05-0.16l-4.05-0.2l-1.01-0.05l-1.01-0.07l-2.03-0.13
		c-2.7-0.16-5.4-0.39-8.1-0.6c-2.7-0.25-5.4-0.49-8.09-0.8c-5.39-0.59-10.76-1.3-16.1-2.11c-5.34-0.81-10.66-1.73-15.94-2.64
		c-5.29-0.91-10.55-1.82-15.81-2.62c-5.26-0.8-10.53-1.5-15.81-2.08c-2.64-0.3-5.29-0.53-7.93-0.78c-2.65-0.2-5.3-0.44-7.96-0.59
		l-1.99-0.13l-1-0.06l-1-0.05l-3.99-0.2c-1.33-0.08-2.66-0.11-3.99-0.16c-1.33-0.05-2.66-0.1-3.99-0.14l-4-0.09l-2-0.05
		c-0.67-0.02-1.33-0.02-2-0.03l-4-0.04c-0.67,0-1.33-0.02-2-0.02l-2,0c-2.67,0.01-5.34,0-8.01,0.04l-4,0.05l-1,0.01l-1,0.02l-2,0.05
		l-4,0.1l-4,0.15l-2,0.08c-0.67,0.02-1.33,0.05-2,0.09l-3.99,0.2c-1.33,0.06-2.66,0.15-3.99,0.24c-1.33,0.09-2.66,0.17-3.99,0.27
		c-2.65,0.21-5.31,0.41-7.96,0.67c-10.61,0.96-21.13,2.5-31.64,4.38c-5.26,0.94-10.52,1.95-15.8,2.93
		c-5.29,0.98-10.6,1.92-15.93,2.75c-5.33,0.84-10.7,1.53-16.07,2.11c-2.68,0.31-5.37,0.54-8.06,0.8l-4.04,0.32l-2.02,0.16
		l-2.02,0.13c-10.77,0.72-21.54,1.05-32.3,1.13c-10.76,0.08-21.54-0.09-32.3-0.64l-2.02-0.1l-2.02-0.13l-4.04-0.26
		c-2.69-0.22-5.38-0.41-8.06-0.67c-5.37-0.5-10.73-1.12-16.07-1.87c-5.34-0.75-10.66-1.61-15.95-2.51c-5.3-0.9-10.57-1.84-15.85-2.7
		c-10.55-1.73-21.14-3.11-31.79-3.92c-2.66-0.23-5.33-0.38-7.99-0.55c-1.33-0.08-2.67-0.14-4-0.21c-1.33-0.07-2.67-0.14-4-0.18
		l-4.01-0.14c-0.67-0.03-1.34-0.04-2-0.06l-2-0.05l-4.01-0.09l-4.01-0.04l-2.01-0.02l-1-0.01l-1,0l-4.01,0.01
		c-2.68-0.01-5.35,0.04-8.03,0.08l-2.01,0.03c-0.67,0.01-1.34,0.03-2.01,0.05l-4.01,0.1c-0.67,0.02-1.34,0.03-2.01,0.06l-2,0.08
		l-4.01,0.15c-1.34,0.06-2.67,0.13-4.01,0.2c-1.33,0.07-2.67,0.13-4,0.22l-4,0.26l-1,0.07l-1,0.08l-2,0.16
		c-2.67,0.19-5.32,0.47-7.99,0.71c-2.66,0.29-5.31,0.56-7.97,0.91c-5.3,0.66-10.59,1.44-15.87,2.33
		c-5.28,0.88-10.54,1.87-15.81,2.87c-5.27,0.99-10.55,1.98-15.86,2.87c-5.3,0.89-10.63,1.68-15.96,2.34
		c-2.67,0.34-5.34,0.62-8.02,0.91c-2.68,0.25-5.35,0.52-8.03,0.72l-2.01,0.16l-1,0.08l-1.01,0.07l-4.02,0.26
		c-1.34,0.1-2.68,0.15-4.02,0.22c-1.34,0.07-2.68,0.14-4.03,0.2l-4.03,0.15l-2.01,0.08c-0.67,0.03-1.34,0.04-2.01,0.06l-4.03,0.1
		c-0.67,0.01-1.34,0.04-2.01,0.05l-2.01,0.03c-2.69,0.03-5.37,0.08-8.05,0.08l-4.03,0.01l-1.01,0l-1.01-0.01l-2.01-0.02l-4.03-0.04
		l-4.03-0.09l-2.01-0.05c-0.67-0.01-1.34-0.03-2.01-0.06l-4.03-0.15c-1.34-0.04-2.68-0.11-4.02-0.18c-1.34-0.07-2.68-0.13-4.02-0.21
		c-2.68-0.18-5.36-0.33-8.04-0.56c-10.71-0.81-21.38-2.2-31.97-3.94c-5.3-0.86-10.58-1.8-15.87-2.7c-5.29-0.9-10.58-1.76-15.89-2.5
		c-5.31-0.75-10.63-1.36-15.97-1.86c-2.67-0.27-5.34-0.46-8.01-0.67l-4.01-0.26l-2.01-0.13l-2.01-0.1
		C21.46,516.78,10.73,516.6,0,516.68z"/>
	<path class="st5" d="M0,516.68c10.73-0.08,21.46,0.1,32.18,0.65l2.01,0.1l2.01,0.13l4.02,0.26c2.67,0.22,5.35,0.41,8.02,0.67
		c5.34,0.5,10.68,1.11,15.99,1.87c5.32,0.74,10.62,1.6,15.9,2.51c5.29,0.9,10.57,1.84,15.86,2.7c10.58,1.74,21.21,3.13,31.89,3.94
		c2.67,0.23,5.34,0.38,8.01,0.56c1.34,0.08,2.67,0.14,4.01,0.21c1.34,0.07,2.67,0.14,4.01,0.18l4.01,0.15
		c0.67,0.03,1.34,0.04,2.01,0.06l2.01,0.05l4.02,0.09l4.02,0.04l2.01,0.02l1,0.01l1,0l4.02-0.01c2.68,0.01,5.36-0.04,8.04-0.07
		l2.01-0.03c0.67-0.01,1.34-0.03,2.01-0.05l4.02-0.1c0.67-0.02,1.34-0.03,2.01-0.05l2.01-0.08l4.01-0.15
		c1.34-0.06,2.67-0.13,4.01-0.2c1.34-0.07,2.67-0.12,4.01-0.22l4.01-0.26l1-0.07l1-0.08l2-0.16c2.67-0.19,5.33-0.47,7.99-0.71
		c2.66-0.29,5.32-0.56,7.97-0.91c5.31-0.66,10.6-1.44,15.88-2.32c5.28-0.88,10.54-1.87,15.81-2.86c5.27-0.99,10.55-1.98,15.86-2.87
		c5.3-0.89,10.63-1.68,15.97-2.34c2.67-0.34,5.35-0.62,8.02-0.91c2.68-0.25,5.36-0.52,8.04-0.72l2.01-0.16l1.01-0.08l1.01-0.07
		l4.03-0.26c1.34-0.1,2.69-0.15,4.03-0.22c1.34-0.07,2.69-0.14,4.03-0.2l4.03-0.15l2.02-0.08c0.67-0.03,1.34-0.04,2.02-0.06
		l4.03-0.1c0.67-0.01,1.34-0.04,2.02-0.05l2.02-0.03c2.69-0.03,5.38-0.08,8.06-0.07l4.03-0.01l1.01,0l1.01,0.01l2.02,0.02l4.03,0.04
		l4.03,0.09l2.02,0.05c0.67,0.01,1.34,0.03,2.02,0.06l4.03,0.15c1.34,0.04,2.69,0.11,4.03,0.18c1.34,0.07,2.69,0.13,4.03,0.21
		c2.69,0.18,5.38,0.33,8.06,0.56c10.75,0.82,21.46,2.22,32.08,3.96c5.31,0.87,10.6,1.81,15.88,2.71c5.28,0.9,10.55,1.76,15.84,2.49
		c5.28,0.75,10.58,1.35,15.89,1.85c2.65,0.27,5.31,0.45,7.97,0.67l3.99,0.26c0.67,0.04,1.33,0.09,2,0.13l2,0.1
		c10.66,0.55,21.35,0.72,32.04,0.65c10.69-0.08,21.38-0.41,32.02-1.11l2-0.13l1.99-0.15l3.99-0.32c2.65-0.25,5.31-0.48,7.95-0.78
		c5.3-0.58,10.58-1.26,15.84-2.08c5.27-0.81,10.52-1.74,15.78-2.72c5.26-0.98,10.54-1.99,15.84-2.94c10.61-1.9,21.33-3.46,32.1-4.44
		c2.69-0.27,5.38-0.46,8.08-0.68c1.35-0.1,2.69-0.18,4.04-0.27c1.35-0.09,2.69-0.18,4.04-0.24l4.04-0.21
		c0.67-0.04,1.35-0.06,2.02-0.09l2.02-0.08l4.04-0.15l4.04-0.1l2.02-0.05l1.01-0.02l1.01-0.01l4.04-0.05
		c2.69-0.05,5.39-0.04,8.08-0.04l2.02,0c0.67,0,1.35,0.01,2.02,0.02l4.04,0.04c0.67,0.01,1.35,0.01,2.02,0.03l2.02,0.05l4.05,0.09
		c1.35,0.04,2.7,0.09,4.05,0.14c1.35,0.05,2.7,0.09,4.05,0.16l4.05,0.2l1.01,0.05l1.01,0.07l2.02,0.13c2.7,0.16,5.39,0.39,8.09,0.6
		c2.69,0.25,5.39,0.49,8.08,0.8c5.38,0.59,10.75,1.3,16.09,2.12c5.34,0.81,10.65,1.73,15.94,2.65c5.29,0.92,10.55,1.82,15.81,2.62
		c5.26,0.8,10.53,1.5,15.8,2.08c2.64,0.3,5.28,0.53,7.93,0.78c2.65,0.2,5.29,0.44,7.95,0.59l1.99,0.13l0.99,0.06l1,0.05l3.98,0.2
		c1.33,0.08,2.66,0.11,3.99,0.16c1.33,0.05,2.66,0.1,3.99,0.14l3.99,0.09l2,0.05c0.67,0.02,1.33,0.02,2,0.03l4,0.04
		c0.67,0,1.33,0.02,2,0.02l2,0c2.67-0.01,5.33,0.01,8-0.04l4-0.05l1-0.01l1-0.02l2-0.05l4-0.1l3.99-0.15l2-0.08
		c0.67-0.02,1.33-0.05,1.99-0.09l3.98-0.2c1.33-0.06,2.65-0.15,3.98-0.24c1.33-0.09,2.65-0.17,3.98-0.26
		c2.65-0.21,5.3-0.4,7.94-0.67c10.58-0.96,21.05-2.48,31.54-4.36c5.25-0.93,10.5-1.95,15.8-2.93c5.29-0.98,10.62-1.93,15.98-2.75
		c5.36-0.84,10.75-1.53,16.15-2.12c2.7-0.31,5.4-0.54,8.1-0.8l4.05-0.32l2.03-0.16l2.03-0.13c10.82-0.71,21.63-1.05,32.43-1.12
		l0.03,9.09c-10.66-0.02-21.3,0.22-31.9,0.82l-1.99,0.11c-0.66,0.04-1.32,0.09-1.98,0.14l-3.97,0.28c-2.64,0.23-5.28,0.43-7.92,0.71
		c-5.27,0.53-10.53,1.16-15.78,1.93c-5.25,0.76-10.49,1.64-15.76,2.57c-5.26,0.93-10.55,1.9-15.88,2.8
		c-10.65,1.81-21.44,3.29-32.24,4.17c-2.7,0.25-5.4,0.42-8.1,0.61c-1.35,0.09-2.7,0.15-4.05,0.23c-1.35,0.08-2.7,0.16-4.05,0.21
		l-4.05,0.17c-0.68,0.03-1.35,0.05-2.03,0.07l-2.03,0.06l-4.05,0.11l-4.05,0.07l-2.02,0.03l-1.01,0.02l-1.01,0l-4.05,0.02
		c-2.7,0.02-5.39-0.01-8.09-0.03l-2.02-0.01c-0.67,0-1.35-0.02-2.02-0.03l-4.05-0.08c-0.67-0.02-1.35-0.02-2.02-0.04l-2.02-0.06
		l-4.05-0.13c-1.35-0.05-2.7-0.12-4.05-0.18c-1.35-0.07-2.7-0.11-4.05-0.2l-4.05-0.24l-1.01-0.06l-1.01-0.07l-2.02-0.15
		c-2.7-0.18-5.4-0.44-8.09-0.67c-2.69-0.28-5.39-0.54-8.08-0.87c-5.38-0.64-10.75-1.4-16.08-2.26c-5.34-0.86-10.64-1.82-15.92-2.79
		c-5.28-0.96-10.53-1.92-15.79-2.77c-5.26-0.85-10.52-1.6-15.79-2.22c-2.64-0.33-5.28-0.58-7.93-0.85c-2.65-0.23-5.3-0.48-7.95-0.66
		l-1.99-0.15l-1-0.07l-1-0.06l-3.99-0.24c-1.33-0.09-2.66-0.13-3.99-0.2c-1.33-0.06-2.66-0.13-3.99-0.17l-4-0.13l-2-0.06
		c-0.67-0.02-1.33-0.03-2-0.04l-4-0.08c-0.67-0.01-1.33-0.03-2-0.03l-2-0.01c-2.67-0.02-5.34-0.05-8.01-0.03l-4,0.02l-1,0l-1,0.02
		l-2,0.03l-4,0.06l-4,0.11l-2,0.06c-0.67,0.02-1.33,0.04-2,0.07l-3.99,0.17c-1.33,0.05-2.66,0.13-3.99,0.2
		c-1.33,0.08-2.66,0.14-3.99,0.23c-2.66,0.19-5.31,0.36-7.96,0.6c-10.61,0.87-21.15,2.3-31.68,4.1c-5.27,0.89-10.54,1.86-15.83,2.79
		c-5.29,0.93-10.61,1.83-15.96,2.61c-5.34,0.79-10.71,1.43-16.08,1.97c-2.69,0.28-5.38,0.49-8.07,0.72l-4.04,0.28l-2.02,0.14
		l-2.02,0.11c-10.77,0.62-21.55,0.85-32.31,0.84c-10.76-0.02-21.53-0.29-32.3-0.94l-2.02-0.12l-2.02-0.14l-4.03-0.3
		c-2.69-0.24-5.37-0.46-8.06-0.75c-5.37-0.55-10.72-1.21-16.06-2.02c-5.33-0.79-10.64-1.7-15.93-2.65
		c-5.29-0.95-10.56-1.93-15.83-2.84c-10.54-1.83-21.11-3.3-31.75-4.21c-2.66-0.25-5.32-0.43-7.99-0.63c-1.33-0.09-2.67-0.16-4-0.24
		c-1.33-0.08-2.67-0.16-4-0.22l-4.01-0.18c-0.67-0.03-1.34-0.06-2-0.08l-2-0.06l-4.01-0.12l-4.01-0.08l-2.01-0.04l-1-0.02l-1-0.01
		l-4.01-0.03c-2.68-0.03-5.35-0.01-8.03,0l-2.01,0.01c-0.67,0-1.34,0.02-2.01,0.03l-4.01,0.06c-0.67,0.01-1.34,0.02-2.01,0.04
		l-2.01,0.06l-4.01,0.12c-1.34,0.04-2.67,0.11-4.01,0.16c-1.34,0.06-2.67,0.1-4.01,0.18l-4,0.22l-1,0.06l-1,0.07l-2,0.14
		c-2.67,0.17-5.33,0.42-7.99,0.64c-2.66,0.27-5.32,0.52-7.97,0.83c-5.31,0.61-10.61,1.34-15.89,2.18
		c-5.28,0.84-10.56,1.78-15.84,2.72c-5.28,0.95-10.57,1.89-15.88,2.73c-5.31,0.84-10.64,1.58-15.98,2.2
		c-2.67,0.32-5.35,0.57-8.02,0.84c-2.68,0.22-5.36,0.47-8.04,0.64l-2.01,0.14l-1.01,0.07l-1.01,0.06l-4.03,0.23
		c-1.34,0.08-2.68,0.12-4.03,0.19c-1.34,0.05-2.68,0.12-4.03,0.16l-4.03,0.12l-2.01,0.06c-0.67,0.02-1.34,0.02-2.01,0.04l-4.03,0.06
		c-0.67,0.01-1.34,0.03-2.01,0.03l-2.01,0.01c-2.69,0.01-5.37,0.04-8.06,0l-4.03-0.03l-1.01-0.01l-1.01-0.02l-2.01-0.04l-4.03-0.08
		l-4.03-0.12l-2.01-0.06c-0.67-0.02-1.34-0.04-2.01-0.08l-4.02-0.18c-1.34-0.05-2.68-0.14-4.02-0.22c-1.34-0.08-2.68-0.15-4.02-0.24
		c-2.68-0.2-5.36-0.38-8.03-0.63c-10.71-0.91-21.36-2.4-31.94-4.23c-5.29-0.91-10.56-1.9-15.84-2.84
		c-5.28-0.95-10.56-1.85-15.86-2.64c-5.3-0.8-10.62-1.45-15.95-2c-2.66-0.29-5.34-0.5-8.01-0.74l-4.01-0.3l-2.01-0.14l-2.01-0.12
		C21.46,516.97,10.73,516.7,0,516.68z"/>
	<path class="st2" d="M0,516.68c10.73,0.01,21.46,0.28,32.17,0.92l2.01,0.12l2.01,0.14l4.01,0.29c2.67,0.24,5.35,0.45,8.02,0.74
		c5.34,0.55,10.67,1.2,15.98,2c5.31,0.79,10.6,1.69,15.88,2.64c5.28,0.95,10.55,1.93,15.84,2.84c10.56,1.83,21.18,3.3,31.86,4.21
		c2.67,0.25,5.34,0.43,8.01,0.62c1.34,0.09,2.67,0.16,4.01,0.24c1.34,0.08,2.67,0.16,4.01,0.21l4.01,0.18
		c0.67,0.03,1.34,0.06,2.01,0.08l2.01,0.06l4.02,0.12l4.02,0.08l2.01,0.04l1,0.02l1,0.01l4.02,0.03c2.68,0.03,5.36,0,8.04-0.01
		l2.01-0.01c0.67,0,1.34-0.02,2.01-0.03l4.02-0.07c0.67-0.01,1.34-0.02,2.01-0.04l2.01-0.06l4.01-0.12
		c1.34-0.05,2.68-0.11,4.01-0.16c1.34-0.06,2.68-0.1,4.01-0.19l4.01-0.23l1-0.06l1-0.07l2-0.14c2.67-0.17,5.33-0.42,8-0.64
		c2.66-0.27,5.32-0.52,7.98-0.84c5.31-0.61,10.61-1.35,15.9-2.19c5.29-0.84,10.56-1.78,15.84-2.73c5.28-0.95,10.57-1.89,15.88-2.74
		c5.31-0.85,10.65-1.59,15.99-2.2c2.67-0.32,5.35-0.57,8.03-0.84c2.68-0.22,5.36-0.48,8.05-0.65l2.01-0.14l1.01-0.07l1.01-0.06
		l4.03-0.23c1.34-0.08,2.69-0.13,4.03-0.19c1.34-0.05,2.69-0.12,4.03-0.17l4.03-0.12l2.02-0.06c0.67-0.02,1.34-0.02,2.02-0.04
		l4.03-0.07c0.67-0.01,1.34-0.03,2.02-0.03l2.02-0.01c2.69-0.01,5.38-0.04,8.06-0.01l4.03,0.03l1.01,0.01l1.01,0.02l2.02,0.04
		l4.03,0.08l4.03,0.12l2.02,0.06c0.67,0.02,1.34,0.04,2.02,0.08l4.03,0.18c1.34,0.05,2.69,0.14,4.03,0.22
		c1.34,0.08,2.69,0.15,4.03,0.24c2.69,0.2,5.37,0.38,8.06,0.63c10.74,0.91,21.44,2.4,32.04,4.23c5.3,0.91,10.58,1.89,15.85,2.84
		c5.27,0.95,10.54,1.84,15.82,2.63c5.28,0.79,10.57,1.44,15.88,1.99c2.65,0.29,5.31,0.5,7.97,0.74l3.99,0.29
		c0.67,0.05,1.33,0.1,2,0.14l2,0.12c10.66,0.64,21.34,0.9,32.04,0.92c10.69,0.01,21.38-0.23,32.03-0.84l2-0.11l1.99-0.14l3.99-0.28
		c2.65-0.23,5.31-0.44,7.96-0.72c5.3-0.53,10.59-1.17,15.86-1.95c5.27-0.77,10.53-1.66,15.8-2.59c5.27-0.93,10.55-1.9,15.86-2.8
		c10.62-1.81,21.36-3.28,32.14-4.17c2.69-0.25,5.39-0.42,8.08-0.61c1.35-0.09,2.7-0.16,4.04-0.23c1.35-0.08,2.7-0.16,4.04-0.21
		l4.04-0.17c0.67-0.03,1.35-0.05,2.02-0.07l2.02-0.06l4.04-0.11l4.04-0.07l2.02-0.03l1.01-0.02l1.01,0l4.04-0.02
		c2.69-0.03,5.39,0.01,8.08,0.02l2.02,0.01c0.67,0,1.35,0.02,2.02,0.03l4.04,0.08c0.67,0.01,1.35,0.02,2.02,0.04l2.02,0.06
		l4.04,0.13c1.35,0.05,2.7,0.12,4.05,0.18c1.35,0.06,2.7,0.11,4.05,0.2l4.05,0.24l1.01,0.06l1.01,0.07l2.02,0.15
		c2.7,0.18,5.39,0.44,8.09,0.67c2.69,0.28,5.39,0.54,8.07,0.87c5.38,0.63,10.74,1.39,16.08,2.25c5.34,0.86,10.64,1.82,15.92,2.78
		c5.28,0.96,10.53,1.91,15.79,2.76c5.25,0.85,10.51,1.59,15.79,2.21c2.63,0.32,5.28,0.58,7.92,0.85c2.65,0.23,5.29,0.48,7.94,0.66
		l1.99,0.15l0.99,0.07l1,0.06l3.98,0.23c1.33,0.09,2.66,0.13,3.99,0.19c1.33,0.06,2.66,0.12,3.99,0.17l3.99,0.13l2,0.06
		c0.67,0.02,1.33,0.03,2,0.04l4,0.08c0.67,0.01,1.33,0.03,2,0.03l2,0.01c2.67,0.01,5.33,0.05,8,0.02l4-0.02l1,0l1-0.02l2-0.03
		l4-0.07l3.99-0.11l2-0.06c0.67-0.02,1.33-0.04,1.99-0.07l3.99-0.17c1.33-0.05,2.66-0.13,3.98-0.2c1.33-0.08,2.65-0.14,3.98-0.23
		c2.65-0.19,5.3-0.36,7.94-0.6c10.58-0.87,21.07-2.31,31.57-4.1c5.25-0.89,10.52-1.86,15.82-2.8c5.3-0.94,10.64-1.84,16.01-2.62
		c5.37-0.79,10.76-1.44,16.16-1.98c2.7-0.29,5.4-0.5,8.11-0.73l4.06-0.29l2.03-0.14l2.03-0.11c10.82-0.62,21.64-0.86,32.43-0.85
		l-0.05,9.09c-10.66-0.11-21.3,0.04-31.91,0.56l-1.99,0.09c-0.66,0.03-1.32,0.08-1.99,0.12l-3.97,0.25
		c-2.64,0.21-5.29,0.39-7.92,0.64c-5.28,0.48-10.54,1.07-15.8,1.8c-5.26,0.72-10.51,1.56-15.78,2.44
		c-5.27,0.88-10.57,1.81-15.9,2.66c-10.66,1.72-21.46,3.11-32.28,3.9c-2.7,0.22-5.41,0.37-8.11,0.54c-1.35,0.08-2.7,0.13-4.06,0.2
		c-1.35,0.06-2.7,0.13-4.05,0.17l-4.05,0.14c-0.68,0.03-1.35,0.04-2.03,0.05l-2.03,0.04l-4.05,0.08l-4.05,0.03l-2.02,0.02
		l-1.01,0.01l-1.01,0l-4.05-0.02c-2.7,0-5.39-0.06-8.09-0.1l-2.02-0.03c-0.67-0.01-1.35-0.03-2.02-0.05l-4.05-0.11
		c-0.67-0.02-1.35-0.03-2.02-0.06l-2.02-0.08l-4.05-0.16c-1.35-0.06-2.7-0.14-4.05-0.21c-1.35-0.08-2.7-0.13-4.05-0.23l-4.05-0.27
		l-1.01-0.07l-1.01-0.08l-2.02-0.17c-2.7-0.2-5.39-0.49-8.09-0.74c-2.69-0.3-5.39-0.58-8.07-0.94c-5.38-0.68-10.74-1.49-16.06-2.4
		c-5.33-0.91-10.63-1.91-15.89-2.92c-5.27-1.01-10.51-2-15.76-2.9c-5.25-0.9-10.5-1.69-15.77-2.35c-2.63-0.35-5.28-0.63-7.92-0.92
		c-2.65-0.25-5.29-0.53-7.94-0.73l-1.99-0.16l-0.99-0.08l-1-0.07l-3.98-0.27c-1.33-0.1-2.66-0.15-3.99-0.23
		c-1.33-0.07-2.66-0.15-3.99-0.21l-4-0.16l-2-0.08c-0.67-0.03-1.33-0.04-2-0.06l-4-0.11c-0.67-0.02-1.33-0.04-2-0.05l-2-0.03
		c-2.67-0.04-5.34-0.1-8.01-0.1l-4-0.02l-1,0l-1,0.01l-2,0.02l-4,0.03l-4,0.08l-2,0.04c-0.67,0.01-1.33,0.03-2,0.05l-4,0.13
		c-1.33,0.04-2.66,0.11-3.99,0.17c-1.33,0.07-2.66,0.12-3.99,0.2c-2.66,0.17-5.32,0.31-7.97,0.53c-10.62,0.78-21.17,2.13-31.71,3.83
		c-5.27,0.85-10.55,1.77-15.85,2.66c-5.3,0.89-10.63,1.74-15.98,2.47c-5.35,0.74-10.72,1.34-16.1,1.83
		c-2.69,0.26-5.38,0.45-8.07,0.66l-4.04,0.25l-2.02,0.12l-2.02,0.1c-10.78,0.53-21.55,0.67-32.31,0.56
		c-10.76-0.11-21.53-0.47-32.29-1.21l-2.02-0.14l-2.02-0.16l-4.03-0.33c-2.68-0.26-5.37-0.5-8.05-0.82
		c-5.36-0.6-10.71-1.3-16.04-2.15c-5.33-0.84-10.63-1.79-15.91-2.79c-5.28-0.99-10.54-2.02-15.8-2.97
		c-10.52-1.91-21.08-3.48-31.71-4.47c-2.66-0.27-5.32-0.47-7.98-0.69c-1.33-0.1-2.67-0.18-4-0.28c-1.33-0.09-2.67-0.19-4-0.25
		l-4-0.21c-0.67-0.04-1.33-0.07-2-0.09l-2-0.08l-4.01-0.16l-4.01-0.11l-2.01-0.06l-1-0.03l-1-0.02l-4.01-0.06
		c-2.68-0.06-5.35-0.05-8.03-0.07l-2.01-0.01c-0.67,0-1.34,0.01-2.01,0.01l-4.01,0.03c-0.67,0.01-1.34,0.01-2.01,0.02l-2.01,0.04
		l-4.01,0.08c-1.34,0.03-2.67,0.09-4.01,0.13c-1.34,0.05-2.67,0.08-4.01,0.15l-4.01,0.19l-1,0.05l-1,0.06l-2,0.12
		c-2.67,0.15-5.33,0.37-8,0.57c-2.66,0.24-5.32,0.47-7.98,0.77c-5.31,0.57-10.62,1.25-15.91,2.05c-5.29,0.79-10.57,1.69-15.86,2.59
		c-5.29,0.9-10.59,1.8-15.9,2.6c-5.32,0.8-10.65,1.49-16,2.06c-2.67,0.3-5.35,0.53-8.03,0.77c-2.68,0.2-5.36,0.43-8.05,0.58
		l-2.01,0.12l-1.01,0.06l-1.01,0.05l-4.03,0.19c-1.34,0.07-2.69,0.1-4.03,0.15c-1.34,0.04-2.69,0.1-4.03,0.13l-4.03,0.08l-2.01,0.04
		c-0.67,0.01-1.34,0.01-2.01,0.02l-4.03,0.03c-0.67,0-1.34,0.01-2.01,0.01l-2.01-0.01c-2.69-0.01-5.37-0.01-8.06-0.07l-4.03-0.06
		l-1.01-0.02l-1.01-0.03l-2.01-0.06l-4.03-0.11l-4.03-0.16l-2.01-0.08c-0.67-0.03-1.34-0.05-2.01-0.09l-4.02-0.22
		c-1.34-0.06-2.68-0.16-4.02-0.25c-1.34-0.09-2.68-0.17-4.02-0.28c-2.68-0.22-5.36-0.42-8.03-0.7c-10.7-1-21.34-2.58-31.9-4.5
		c-5.28-0.96-10.55-1.98-15.82-2.98c-5.27-0.99-10.55-1.94-15.84-2.78c-5.29-0.84-10.61-1.54-15.94-2.14
		c-2.66-0.31-5.33-0.55-8-0.81l-4.01-0.33l-2-0.16l-2.01-0.14C21.45,517.15,10.73,516.79,0,516.68z"/>
	<path class="st3" d="M0,516.68c10.73,0.11,21.46,0.47,32.16,1.21l2.01,0.14l2.01,0.16l4.01,0.33c2.67,0.26,5.34,0.5,8.01,0.81
		c5.33,0.6,10.66,1.3,15.96,2.14c5.3,0.84,10.59,1.79,15.86,2.78c5.27,0.99,10.54,2.02,15.81,2.98c10.55,1.92,21.15,3.5,31.82,4.5
		c2.66,0.27,5.33,0.47,8,0.7c1.34,0.1,2.67,0.18,4.01,0.28c1.34,0.09,2.67,0.19,4.01,0.25l4.01,0.22c0.67,0.04,1.34,0.07,2.01,0.09
		l2.01,0.08l4.01,0.16l4.02,0.11l2.01,0.06l1,0.03l1,0.02l4.02,0.06c2.68,0.06,5.36,0.05,8.04,0.07l2.01,0.01
		c0.67,0,1.34-0.01,2.01-0.01l4.02-0.03c0.67-0.01,1.34-0.01,2.01-0.02l2.01-0.04l4.02-0.08c1.34-0.03,2.68-0.09,4.01-0.13
		c1.34-0.05,2.68-0.08,4.01-0.15l4.01-0.19l1-0.05l1-0.06l2-0.12c2.67-0.15,5.34-0.37,8.01-0.57c2.66-0.24,5.33-0.47,7.99-0.77
		c5.32-0.56,10.62-1.25,15.92-2.05c5.29-0.79,10.57-1.69,15.86-2.59c5.29-0.9,10.59-1.8,15.91-2.59c5.32-0.8,10.66-1.49,16.01-2.06
		c2.68-0.3,5.36-0.53,8.04-0.77c2.68-0.2,5.37-0.43,8.05-0.57l2.01-0.12l1.01-0.06l1.01-0.05l4.03-0.19
		c1.34-0.07,2.69-0.1,4.03-0.15c1.34-0.04,2.69-0.1,4.03-0.13l4.03-0.08l2.02-0.04c0.67-0.01,1.34-0.01,2.02-0.02l4.03-0.03
		c0.67,0,1.34-0.01,2.02-0.01l2.02,0.01c2.69,0.02,5.38,0.01,8.06,0.07l4.03,0.06l1.01,0.02l1.01,0.03l2.02,0.06l4.03,0.11
		l4.03,0.16l2.02,0.08c0.67,0.03,1.34,0.05,2.02,0.09l4.03,0.22c1.34,0.06,2.69,0.16,4.03,0.25c1.34,0.09,2.69,0.18,4.03,0.28
		c2.68,0.22,5.37,0.42,8.05,0.7c10.73,1,21.42,2.59,32,4.52c5.29,0.96,10.56,1.99,15.83,2.98c5.26,0.99,10.52,1.94,15.79,2.77
		c5.27,0.84,10.56,1.54,15.86,2.13c2.65,0.31,5.31,0.55,7.96,0.81l3.99,0.33c0.66,0.05,1.33,0.11,1.99,0.16l2,0.14
		c10.65,0.74,21.33,1.1,32.03,1.21c10.69,0.11,21.38-0.03,32.04-0.55l2-0.09l2-0.12l3.99-0.25c2.66-0.21,5.32-0.39,7.97-0.65
		c5.3-0.48,10.6-1.07,15.88-1.8c5.28-0.72,10.55-1.56,15.83-2.44c5.28-0.88,10.57-1.81,15.89-2.66c10.64-1.72,21.39-3.09,32.17-3.87
		c2.69-0.22,5.39-0.37,8.09-0.54c1.35-0.08,2.7-0.13,4.05-0.2c1.35-0.06,2.7-0.13,4.05-0.17l4.05-0.14
		c0.67-0.03,1.35-0.04,2.02-0.05l2.02-0.04l4.04-0.08l4.04-0.03l2.02-0.02l1.01-0.01l1.01,0l4.04,0.02c2.69,0,5.39,0.06,8.08,0.1
		l2.02,0.03c0.67,0.01,1.35,0.04,2.02,0.05l4.04,0.11c0.67,0.02,1.35,0.03,2.02,0.06l2.02,0.08l4.04,0.16
		c1.35,0.06,2.7,0.14,4.04,0.21c1.35,0.08,2.7,0.13,4.04,0.23l4.04,0.27l1.01,0.07l1.01,0.08l2.02,0.17c2.7,0.2,5.39,0.49,8.08,0.74
		c2.69,0.3,5.38,0.59,8.07,0.94c5.37,0.68,10.73,1.49,16.05,2.4c5.33,0.91,10.62,1.92,15.89,2.92c5.27,1.01,10.51,2.01,15.76,2.9
		c5.25,0.9,10.5,1.69,15.77,2.35c2.63,0.35,5.27,0.63,7.91,0.92c2.64,0.25,5.29,0.53,7.94,0.73l1.99,0.16l0.99,0.08l0.99,0.07
		l3.98,0.27c1.33,0.1,2.66,0.15,3.98,0.23c1.33,0.07,2.66,0.15,3.99,0.21l3.99,0.16l2,0.08c0.67,0.03,1.33,0.04,2,0.06l4,0.11
		c0.67,0.02,1.33,0.04,2,0.05l2,0.03c2.67,0.04,5.33,0.1,8,0.1l4,0.02l1,0l1-0.01l2-0.02l4-0.03l3.99-0.08l2-0.04
		c0.67-0.01,1.33-0.03,2-0.05l3.99-0.13c1.33-0.04,2.66-0.1,3.98-0.17c1.33-0.07,2.66-0.12,3.98-0.19c2.65-0.17,5.3-0.31,7.95-0.53
		c10.59-0.77,21.09-2.12,31.61-3.81c5.26-0.84,10.53-1.76,15.84-2.65c5.31-0.89,10.66-1.74,16.03-2.47
		c5.37-0.74,10.77-1.34,16.18-1.84c2.7-0.26,5.41-0.45,8.11-0.66l4.06-0.25l2.03-0.12l2.03-0.1c10.83-0.53,21.64-0.67,32.44-0.56
		l-0.13,9.09c-10.66-0.2-21.3-0.16-31.91,0.27l-1.99,0.08c-0.66,0.03-1.32,0.07-1.99,0.1l-3.97,0.21c-2.64,0.18-5.29,0.34-7.93,0.57
		c-5.28,0.43-10.55,0.97-15.81,1.65c-5.26,0.67-10.52,1.46-15.8,2.3c-5.28,0.84-10.58,1.71-15.92,2.52
		c-10.68,1.63-21.49,2.91-32.31,3.6c-2.7,0.2-5.41,0.32-8.11,0.47c-1.35,0.06-2.7,0.11-4.06,0.16c-1.35,0.05-2.7,0.11-4.06,0.13
		l-4.05,0.1c-0.68,0.02-1.35,0.03-2.03,0.03l-2.03,0.02l-4.05,0.04l-4.05-0.01l-2.02,0l-1.01,0l-1.01-0.01l-4.05-0.05
		c-2.7-0.02-5.39-0.11-8.09-0.17l-2.02-0.05c-0.67-0.02-1.35-0.05-2.02-0.07l-4.05-0.15c-0.67-0.03-1.35-0.04-2.02-0.08l-2.02-0.1
		l-4.05-0.2c-1.35-0.07-2.7-0.17-4.05-0.25c-1.35-0.09-2.7-0.16-4.05-0.27l-4.05-0.31l-1.01-0.08l-1.01-0.09l-2.02-0.18
		c-2.7-0.23-5.39-0.54-8.08-0.81c-2.69-0.32-5.38-0.63-8.06-1.01c-5.37-0.73-10.72-1.58-16.04-2.54
		c-5.32-0.95-10.61-2.01-15.87-3.06c-5.26-1.05-10.49-2.1-15.73-3.04c-5.24-0.94-10.49-1.78-15.75-2.5
		c-2.63-0.37-5.27-0.67-7.91-0.99c-2.64-0.27-5.29-0.58-7.94-0.8l-1.99-0.18l-0.99-0.09l-1-0.08l-3.98-0.31
		c-1.33-0.11-2.66-0.18-3.99-0.27c-1.33-0.08-2.66-0.17-3.99-0.24l-3.99-0.2l-2-0.1c-0.67-0.03-1.33-0.05-2-0.08l-4-0.15
		c-0.67-0.02-1.33-0.05-2-0.07l-2-0.05c-2.67-0.06-5.34-0.15-8.01-0.17l-4-0.05l-1-0.01l-1,0l-2,0l-4-0.01l-4,0.04l-2,0.02
		c-0.67,0.01-1.33,0.01-2,0.03l-4,0.1c-1.33,0.03-2.66,0.08-3.99,0.13c-1.33,0.05-2.66,0.1-3.99,0.16
		c-2.66,0.14-5.32,0.26-7.97,0.46c-10.63,0.68-21.19,1.93-31.75,3.54c-5.28,0.8-10.57,1.67-15.88,2.51
		c-5.31,0.84-10.64,1.64-16,2.33c-5.36,0.69-10.73,1.24-16.12,1.69c-2.69,0.24-5.39,0.4-8.08,0.58l-4.04,0.21l-2.02,0.1l-2.02,0.08
		c-10.78,0.43-21.56,0.48-32.32,0.27c-10.76-0.21-21.53-0.66-32.28-1.5l-2.02-0.15l-2.01-0.18l-4.03-0.37
		c-2.68-0.29-5.37-0.55-8.04-0.89c-5.36-0.65-10.7-1.4-16.02-2.3c-5.32-0.89-10.61-1.89-15.88-2.93
		c-5.27-1.04-10.52-2.12-15.77-3.12c-10.5-2.01-21.05-3.67-31.67-4.76c-2.65-0.3-5.32-0.52-7.97-0.77c-1.33-0.11-2.66-0.21-4-0.31
		c-1.33-0.1-2.66-0.21-4-0.29l-4-0.25c-0.67-0.05-1.33-0.08-2-0.11l-2-0.1l-4.01-0.19l-4.01-0.15l-2-0.07l-1-0.04l-1-0.02l-4.01-0.1
		c-2.67-0.08-5.35-0.1-8.03-0.14l-2.01-0.03c-0.67-0.01-1.34,0-2.01-0.01l-4.01-0.01c-0.67,0-1.34-0.01-2.01,0l-2.01,0.02
		l-4.01,0.05c-1.34,0.02-2.67,0.06-4.01,0.09c-1.34,0.04-2.67,0.05-4.01,0.11l-4.01,0.15l-1,0.04l-1,0.05l-2,0.11
		c-2.67,0.12-5.34,0.33-8,0.5c-2.66,0.22-5.33,0.42-7.99,0.69c-5.32,0.52-10.63,1.16-15.92,1.9c-5.3,0.74-10.59,1.59-15.88,2.44
		c-5.3,0.85-10.6,1.7-15.93,2.45c-5.32,0.75-10.67,1.4-16.02,1.92c-2.68,0.27-5.36,0.48-8.04,0.7c-2.68,0.18-5.36,0.38-8.05,0.5
		l-2.01,0.11l-1.01,0.05l-1.01,0.04l-4.03,0.15c-1.34,0.06-2.69,0.08-4.03,0.12c-1.34,0.03-2.69,0.07-4.03,0.09l-4.03,0.05
		l-2.01,0.02c-0.67,0.01-1.34,0-2.01,0l-4.03-0.01c-0.67,0-1.34,0-2.01-0.01l-2.01-0.03c-2.68-0.04-5.37-0.06-8.05-0.14l-4.03-0.1
		l-1.01-0.02l-1.01-0.04l-2.01-0.07l-4.03-0.15l-4.02-0.2l-2.01-0.1c-0.67-0.03-1.34-0.07-2.01-0.11l-4.02-0.25
		c-1.34-0.08-2.68-0.18-4.02-0.29c-1.34-0.11-2.68-0.2-4.02-0.31c-2.67-0.25-5.35-0.47-8.02-0.77c-10.69-1.1-21.31-2.77-31.86-4.79
		c-5.27-1-10.53-2.08-15.79-3.12c-5.26-1.04-10.53-2.04-15.82-2.92c-5.29-0.89-10.59-1.64-15.92-2.28c-2.66-0.34-5.33-0.6-7.99-0.88
		l-4-0.37l-2-0.18l-2-0.15C21.45,517.35,10.73,516.89,0,516.68z"/>
</g>
</svg>
