<?xml version="1.0" encoding="utf-8"?>
<!-- Generator: Adobe Illustrator 25.0.1, SVG Export Plug-In . SVG Version: 6.00 Build 0)  -->
<svg version="1.1" id="레이어_1" xmlns="http://www.w3.org/2000/svg" xmlns:xlink="http://www.w3.org/1999/xlink" x="0px"
	 y="0px" viewBox="0 0 1024 1024" style="enable-background:new 0 0 1024 1024;" xml:space="preserve">
<style type="text/css">
	.st0{opacity:0.3;fill:#CEDB00;enable-background:new    ;}
	.st1{fill:#CEDB00;}
	.st2{fill:#1C1C1C;}
</style>
<g>
	<ellipse class="st0" cx="512.5" cy="352.62" rx="241.81" ry="207.69"/>
	<ellipse class="st1" cx="512.5" cy="352.62" rx="178.14" ry="153"/>
</g>
<path class="st2" d="M552.44,557.91c-22.95,0-54.42-11.69-74.07-67.39c-7.75-21.98-13.99-44.83-18.58-68.08
	c-26.95,34.46-58.82,71.07-99.42,114.24c-3.51,3.73-8.74,5.88-14.33,5.88c-4.19,0-8.29-1.25-11.56-3.51
	c-3.83-2.65-6.22-6.43-6.74-10.63s0.89-8.32,3.99-11.61c48.9-52,84.2-93.41,114.46-134.29c2.14-2.9,4.28-5.8,6.42-8.72
	c-2.13-21.48-2.96-43.58-2.47-65.7l0.07-3.06c0.95-43.18,1.92-87.84,25.7-129.79c10.41-18.36,27.38-29.33,45.39-29.33
	c0.4,0,0.81,0.01,1.21,0.02c17.05,0.39,31.66,10.43,40.07,27.53c10.54,21.45,11.21,48.37,1.89,75.78
	c-16.68,49.02-48.16,96.27-74.03,132.21c4.16,34.46,11.95,68.06,23.18,99.89c7.23,20.49,19.89,44.91,39.2,44.91
	c1.07,0,2.17-0.07,3.27-0.22c31.41-4,75.12-50.53,114.09-121.44c39.4-71.7,63.87-150.7,63.87-206.16c0-8.72,8.26-15.81,18.41-15.81
	c10.15,0,18.41,7.09,18.41,15.81c0,60.44-26.05,145.07-67.99,220.88C681.4,458.14,624.63,549.3,561.5,557.33
	C558.46,557.71,555.41,557.91,552.44,557.91z M521.47,177.56c-1.93,0-7.53,2.82-12.47,11.54c-20.22,35.68-21.08,74.96-21.99,116.54
	l-0.07,3.07c-0.12,5.17-0.16,10.37-0.12,15.55c20.01-31.31,33.58-58.26,42.3-83.87c6.96-20.45,6.79-39.85-0.47-54.61
	c-3.05-6.22-6.31-8.2-7.16-8.22l-0.03-4.56L521.47,177.56L521.47,177.56z"/>
<path class="st2" d="M511.62,1023.33c-29.66,0-60.61-11.33-80.76-29.57c-10.13-9.17-11.59-17.48-4.34-24.7
	c4.78-4.75,9.87-5.75,13.3-5.75c5.25,0,10.74,2.25,15.87,6.51c16.15,13.43,36.34,20.83,56.86,20.83c15.65,0,30.95-4.39,43.08-12.36
	c7.98-5.24,14.82-12.18,21.43-18.9l0.92-0.94c6.09-6.17,10.21-11.47,12.95-16.63c0.07-0.19,0.16-0.37,0.25-0.57
	c-0.25-0.04-0.53-0.07-0.86-0.1c-21.12-0.09-42.25-0.1-63.37-0.1c-11.57,0-23.15-0.02-34.72-0.08c-12.28-0.06-20.41-4.66-22.3-12.6
	c-1.21-5.12-0.1-9.69,3.2-13.22c3.66-3.91,9.73-6.11,17.11-6.21c16.94-0.23,33.67-0.25,47.79-0.25l37.04,0.03
	c6.73,0,13.45-0.01,20.18-0.03c4.89-0.02,11.33-0.19,17.71-1.33c15.07-2.71,23.57-12.13,22.74-25.21
	c-0.81-12.59-11.41-21.76-26.37-22.84c-2.51-0.18-5.16-0.26-8.59-0.26c-0.73,0-8.57,0.05-8.57,0.05c-1.81,0-3.62-0.02-5.42-0.09
	c-12.85-0.54-21.14-6.53-21.63-15.65c-0.51-9.45,7.58-15.91,21.1-16.86c3.32-0.23,6.65-0.29,10.17-0.34
	c5.53-0.09,11.17-0.19,16.79-1c14.53-2.12,22.74-10.9,22.51-24.11c-0.22-12.86-8.83-21.4-23.62-23.42
	c-3.98-0.54-7.93-0.61-10.93-0.61c-1.46,0-2.93,0.02-4.4,0.04c-1.46,0.02-2.89,0.04-4.31,0.04c-1.12,0-2.25-0.01-3.37-0.04
	c-21.14-0.65-23.79-11.48-23.95-16.1c-0.34-10.04,8.66-16.37,24.08-16.95c1.4-0.05,2.8-0.07,4.21-0.07l6.59,0.03
	c1.02,0,2.07-0.01,3.13-0.03c22.16-0.49,32.1-8.7,33.2-27.44c0.21-3.57,0.16-7.18,0.11-11c-0.03-1.95-0.05-3.9-0.05-5.99v-4.56
	h-21.06c-2.8,0-5.6,0.03-8.4,0.07c-2.76,0.03-5.52,0.06-8.27,0.06c-4.6,0-8.32-0.09-11.72-0.29c-13.57-0.79-21.92-7.14-21.81-16.59
	c0.12-9.54,8.8-15.91,22.12-16.23c6.88-0.16,14.36-0.24,23.55-0.24c5.15,0,10.3,0.02,15.45,0.04l1.71,0.01
	c4.6,0.02,9.21,0.04,13.81,0.04l7-0.02c0.76,0,1.52-0.01,2.28-0.03c8.98-0.18,19.01-1.02,25.35-5.85
	c7.15-5.45,7.92-15.38,8.09-25.09c0.14-7.78,0.59-17.06,2.89-26.91c4.66-19.97,18.37-39.08,38.6-53.81
	c39.78-28.97,68.3-59.15,87.21-92.27c59.18-103.65,51.54-203.98-22.69-298.21C729.18,81.8,639.33,38.03,530.61,33.01
	c-6.56-0.3-13.21-0.46-19.74-0.46c-137.94,0-254.47,66.43-311.71,177.71c-26.95,52.38-33.58,114.19-18.67,174.06
	c14.91,59.86,50.4,113.91,99.93,152.19l5.18,4.03c4.18,3.26,8.36,6.52,12.64,9.69c4.43,3.3,8.49,6.72,12.09,10.16
	c2.84,2.71,5.53,5.6,7.99,8.59c7.83,9.48,13.59,20.08,17.13,31.51c3.03,9.79,3.51,19.56,3.97,29c0.13,2.65,0.26,5.31,0.45,7.98
	c0.66,9.48,3.22,15.3,8.3,18.86c6.77,4.74,16.94,5.41,26,5.43c14.27,0.04,28.54,0.04,42.8,0.04h31.5c17.73,0,35.45,0.01,53.18,0.08
	c6.26,0.03,11.79,0.62,16.44,1.77c11.29,2.8,12.56,10.9,12.32,15.48c-0.23,4.35-2.22,11.96-12.93,14.06
	c-5.41,1.06-11.54,1.62-18.21,1.65c-16.79,0.08-33.6,0.1-50.47,0.1l-60.22-0.02v4.56c0,2.72-0.1,5.33-0.19,7.85
	c-0.21,5.71-0.41,11.06,0.47,16.46c2.05,12.65,12.64,19.95,29.05,20.04c18.6,0.09,37.19,0.1,55.79,0.1l28.22,0.02
	c25.17,0.17,28.85,10.48,28.81,16.62c-0.06,7.5-5.12,16.44-28.93,16.48l-14.44,0.01l-37.2-0.02c-9.41,0-18.82,0.01-28.22,0.05
	c-21.44,0.09-33.74,9.02-33.75,24.47c-0.02,15.45,12.25,24.44,33.67,24.67c6.77,0.07,13.55,0.1,20.32,0.1
	c5.93,0,11.87-0.02,17.8-0.04c0,0,12.68-0.03,17.77-0.03c11.58,0,20.95,0.07,29.51,0.23c9.38,0.17,16.93,3.02,20.74,7.81
	c3,3.78,3.46,8.66,1.28,13.73c-3.31,7.74-10.22,11.04-23.09,11.04L456.11,859c-12.29,0-24.57,0.03-36.86,0.13
	c-10.2,0.08-18.52,2.81-24.06,7.89c-5.01,4.58-7.42,10.79-6.96,17.96c0.75,11.81,8.52,19.6,22.47,22.53
	c1.22,0.26,2.53,0.5,3.86,0.74c5.3,0.99,8.46,1.69,10.41,2.66l1.11,0.56l0.69,0.93c4.48,6.02,6.93,13.6,6.11,18.87
	c-0.95,6.03-7.17,9.63-16.65,9.63c-0.39,0-0.77-0.01-1.16-0.02c-25.59-0.9-44.03-10.34-56.4-28.88
	c-12.98-19.43-12.51-38.91,1.38-57.88c5.68-7.76,7.29-13.37,0.38-22.51c-15.02-19.86-14.94-40.26,0.22-60.63
	c5.35-7.18,7.09-12.89,0.21-20.84c-9.39-10.86-12.78-24.04-11.33-44.09c0.66-9.19-3.04-14.75-12.78-19.19
	c-12.38-5.64-21.12-12.29-26.72-20.33c-7.09-10.17-8.22-21.86-8.38-32.99l-0.02-1.87c-0.13-9.83-1.03-21.38-6.67-32.35
	c-4.53-8.81-11.44-16.77-20.52-23.65c-36.22-27.41-62.19-52.84-81.75-80.04c-46.75-65-65.17-135.93-54.73-210.83
	c12.4-89.03,61.08-162.49,144.68-218.35C340.04,28.1,405.12,6.17,476.05,1.27C488.19,0.43,500.31,0,512.06,0
	C627.85,0,726.3,40.9,804.68,121.56c50.64,52.12,78.61,113.33,83.12,181.94c6.83,103.96-35.19,191.71-124.89,260.82
	c-2.31,1.79-4.58,3.62-6.79,5.5c-9.28,7.93-16.73,16.23-22.17,24.65c-3.62,5.61-6.46,11.31-8.43,16.94
	c-1.9,5.41-2.92,11.16-3.11,17.58l-0.07,2.82c-0.06,2.5-0.12,4.99-0.31,7.49c-0.55,6.99-2.5,17.3-8.64,26.69
	c-5.73,8.77-14.97,16.11-26.73,21.23c-9.12,3.97-12.76,9.43-12.21,18.27c1.35,21.15-2.93,36.05-13.87,48.31
	c-2.91,3.26-3.13,9.64-0.44,12.87c19.89,23.88,18.99,47.94-2.72,73.56l-2.26,2.67l2.25,2.68c15.19,18.1,19.82,33.65,15.03,50.42
	c-5.08,17.79-16.45,30.16-35.77,38.94c-5.64,2.56-12.16,7.66-14.02,13.29c-0.8,2.42-1.67,4.82-2.63,7.2
	c-6.74,16.79-16.91,30.69-30.23,41.3c-14.41,11.49-34.69,20.23-57.1,24.62C525.95,1022.66,518.86,1023.33,511.62,1023.33
	L511.62,1023.33z"/>
</svg>
