<?xml version="1.0" encoding="utf-8"?>
<!-- Generator: Adobe Illustrator 25.0.1, SVG Export Plug-In . SVG Version: 6.00 Build 0)  -->
<svg version="1.1" id="레이어_1" xmlns="http://www.w3.org/2000/svg" xmlns:xlink="http://www.w3.org/1999/xlink" x="0px"
	 y="0px" viewBox="0 0 1024 1024" style="enable-background:new 0 0 1024 1024;" xml:space="preserve">
<style type="text/css">
	.st0{fill:#1C1C1C;}
	.st1{fill:#FFCB39;}
	.st2{fill:#FFF6E3;}
	.st3{fill:#B3E220;}
</style>
<g>
	<path class="st0" d="M512,604.02c-142.96,0-263.93-7.64-349.84-22.1C92.55,570.21,0,547.92,0,489.77
		c0-28.18,25.44-52.47,80.05-76.45c37.88-16.64,88.76-32.52,147.81-46.2c11.09-45.78,43.11-90.27,89.79-124.02
		c53.45-38.65,120.7-59.94,189.38-59.94c136.42,0,250.42,74.57,282.87,183.06c60.64,13.79,112.96,29.83,151.96,46.63
		c56.04,24.13,82.14,48.57,82.14,76.92c0,58.14-92.55,80.44-162.16,92.15C775.93,596.38,654.96,604.02,512,604.02z M507.03,228.25
		c-129.02,0-226.95,83.06-237.47,160.64l-2.11,15.6l-15.37,3.39c-150.4,33.16-204.42,69.69-207.02,82.19
		c0.02,7.15,22.4,30.21,124.58,47.41c83.48,14.05,201.87,21.47,342.36,21.47c140.49,0,258.88-7.42,342.36-21.47
		c102.18-17.19,124.56-40.26,124.56-47.69c-2.86-12.24-58.52-49.09-212.09-82.5l-13.99-3.04l-3.19-13.96
		C727.86,294.87,628.09,228.25,507.03,228.25z"/>
	<path class="st1" d="M776.87,432.18c0,97.5-125.7,147.12-269.84,147.12s-261-79.04-261-176.54s116.85-197.05,261-197.05
		S776.87,295.45,776.87,432.18z"/>
	<path class="st0" d="M507.03,590.34c-71.9,0-139.63-19.04-190.74-53.6c-52.43-35.46-81.3-83.04-81.3-133.98
		c0-51.13,29.4-103.53,80.67-143.77c52.84-41.47,120.8-64.32,191.37-64.32c74.38,0,143.94,22.86,195.87,64.38
		c54.82,43.83,85.01,105.31,85.01,173.13c0,50.2-30.08,91.7-86.99,120.01C651.46,576.79,582.6,590.34,507.03,590.34z M507.03,216.75
		c-65.65,0-128.77,21.17-177.74,59.61c-45.9,36.03-72.22,82.1-72.22,126.41c0,43.38,25.42,84.47,71.59,115.69
		c47.49,32.12,110.84,49.81,178.37,49.81c128.82,0,258.81-42.08,258.81-136.08c0-31.4-6.96-61.03-20.7-88.07
		c-13.06-25.72-31.91-48.54-56.03-67.82C641.08,237.89,576.42,216.75,507.03,216.75z"/>
	<path class="st2" d="M1001.46,489.77c0,64.19-219.14,91.7-489.46,91.7s-489.46-27.52-489.46-91.7S328.25,353.58,512,353.58
		C690.24,353.58,1001.46,425.59,1001.46,489.77z"/>
	<path class="st0" d="M512,592.51c-142.33,0-262.64-7.59-347.93-21.94c-102.66-17.27-152.56-43.7-152.56-80.81
		c0-20.08,18.56-39.13,56.74-58.23c30.93-15.47,74.96-30.9,127.33-44.62c102.98-26.96,227.19-44.39,316.43-44.39
		c87.27,0,210.66,17.42,314.35,44.38c52.87,13.75,97.34,29.17,128.59,44.59c38.74,19.12,57.56,38.18,57.56,58.26
		c0,37.1-49.9,63.53-152.56,80.81C774.64,584.93,654.33,592.51,512,592.51z M512,364.62c-87.52,0-209.53,17.14-310.84,43.67
		C68.87,442.92,33.58,475.8,33.58,489.77c0,10.96,13.07,38.67,134.15,59.04c84.1,14.15,203.15,21.63,344.27,21.63
		s260.17-7.48,344.27-21.63c121.08-20.37,134.15-48.07,134.15-59.04c0-3.78-3.26-17.73-45.26-38.46
		c-29.92-14.77-72.93-29.65-124.37-43.02C718.77,381.76,597.56,364.62,512,364.62z"/>
	<path class="st3" d="M678.65,829.79l-45.88-284.53c-4.25-50.15-60.4-95.36-120.21-95.36c-59.79,0-115.93,45.18-120.21,95.3
		l-45.89,284.58H678.65z"/>
	<path class="st0" d="M678.65,840.83H346.46c-3.23,0-6.31-1.42-8.4-3.88c-2.1-2.46-3.01-5.72-2.49-8.91l45.83-284.19
		c5.06-55.97,66.23-104.98,131.17-104.98c64.97,0,126.14,49.03,131.17,105.03l45.82,284.13c0.51,3.19-0.4,6.45-2.49,8.91
		C684.95,839.41,681.88,840.83,678.65,840.83z M359.41,818.76h306.28l-43.82-271.73c-0.04-0.27-0.08-0.55-0.1-0.83
		c-3.78-44.62-55.83-85.25-109.21-85.25c-53.35,0-105.41,40.61-109.21,85.21c-0.02,0.27-0.06,0.55-0.1,0.82L359.41,818.76z"/>
	<g>
		<path class="st2" d="M616.49,290.31c0.95-0.44,1.91-0.74,2.89-1.1c1.22-0.31,0.99-0.27-0.67,0.12c0.51-0.08,1.02-0.14,1.54-0.19
			c0.63-0.05,2.59-0.43,3.12-0.07c-1.73-0.1-1.96-0.09-0.69,0.02c0.52,0.06,1.04,0.13,1.55,0.22c1.03,0.17,2.05,0.38,3.06,0.64
			c0.5,0.13,1.01,0.26,1.51,0.41c1.25,0.38,1,0.3-0.76-0.26c-0.01,0.05,4.89,2.11,5.35,2.35c0.81,0.42,1.58,0.9,2.38,1.35
			c1.11,0.7,0.89,0.54-0.66-0.46c0.43,0.3,0.85,0.6,1.27,0.91c1.67,1.24,3.25,2.61,4.72,4.08c0.37,0.37,0.73,0.74,1.08,1.12
			c0.86,0.94,0.7,0.77-0.46-0.53c0.36-0.02,1.67,2.15,1.9,2.47c0.6,0.85,1.17,1.72,1.71,2.61c0.36,0.6,2,3.81,0.51,0.75
			c1.42,2.91,2.91,5.23,5.96,6.7c2.59,1.25,6.23,1.6,8.95,0.53c5.32-2.1,10.1-9.03,7.23-14.91c-5.39-11.05-13.41-19.94-24.38-25.71
			c-10.16-5.34-23.96-8.18-34.8-3.21c-2.9,1.33-5.26,2.98-6.7,5.96c-1.25,2.59-1.6,6.23-0.53,8.95
			C603.73,288.51,610.54,293.03,616.49,290.31L616.49,290.31z"/>
		<circle class="st2" cx="673.01" cy="333.44" r="11.72"/>
	</g>
</g>
</svg>
