<?xml version="1.0" encoding="utf-8"?>
<!-- Generator: Adobe Illustrator 25.0.1, SVG Export Plug-In . SVG Version: 6.00 Build 0)  -->
<svg version="1.1" id="레이어_1" xmlns="http://www.w3.org/2000/svg" xmlns:xlink="http://www.w3.org/1999/xlink" x="0px"
	 y="0px" viewBox="0 0 1680 756" style="enable-background:new 0 0 1680 756;" xml:space="preserve">
<style type="text/css">
	.st0{fill:#00F6FF;}
	.st1{fill:#FF9CFF;}
	.st2{fill:#FF8D00;}
	.st3{fill:none;stroke:#FF8D00;stroke-linecap:round;stroke-miterlimit:10;}
	.st4{fill:none;stroke:#00F6FF;stroke-linecap:round;stroke-miterlimit:10;}
	.st5{fill:none;stroke:#FF9CFF;stroke-linecap:round;stroke-linejoin:round;stroke-miterlimit:10;}
</style>
<circle class="st0" cx="1112.5" cy="143.5" r="5.5"/>
<circle class="st1" cx="486.5" cy="244.5" r="5.5"/>
<circle class="st2" cx="750.5" cy="511.5" r="5.5"/>
<circle class="st0" cx="388.5" cy="579.5" r="5.5"/>
<circle class="st0" cx="141.5" cy="167.5" r="5.5"/>
<circle class="st2" cx="1365.5" cy="664.5" r="5.5"/>
<circle class="st1" cx="1518.5" cy="282.5" r="5.5"/>
<circle class="st2" cx="1214.5" cy="413.5" r="5.5"/>
<circle class="st2" cx="816.5" cy="58.5" r="5.5"/>
<circle class="st1" cx="670.5" cy="698.5" r="5.5"/>
<circle class="st2" cx="71.5" cy="394.5" r="5.5"/>
<circle class="st2" cx="1619.5" cy="52.5" r="5.5"/>
<circle class="st0" cx="1613.5" cy="719.5" r="5.5"/>
<g>
	<path class="st2" d="M1388.4,88l-5.72-0.03c-0.14,0-0.27,0.07-0.35,0.18l-3.26,4.69c-0.2,0.29-0.65,0.22-0.76-0.11l-1.74-5.45
		c-0.04-0.13-0.15-0.24-0.28-0.28l-5.47-1.65c-0.34-0.1-0.41-0.55-0.13-0.76l4.64-3.34c0.11-0.08,0.18-0.22,0.18-0.36l-0.12-5.72
		c-0.01-0.35,0.39-0.56,0.68-0.35l4.61,3.38c0.11,0.08,0.26,0.11,0.39,0.06l5.4-1.88c0.33-0.12,0.66,0.2,0.55,0.54l-1.79,5.43
		c-0.04,0.13-0.02,0.28,0.07,0.39l3.46,4.55C1388.96,87.6,1388.75,88,1388.4,88z"/>
	<line class="st3" x1="1391.35" y1="72.1" x2="1412.35" y2="52.88"/>
</g>
<g>
	<path class="st0" d="M1007.21,729l-5.72-0.03c-0.14,0-0.27,0.07-0.35,0.18l-3.26,4.69c-0.2,0.29-0.65,0.22-0.76-0.11l-1.74-5.45
		c-0.04-0.13-0.15-0.24-0.28-0.28l-5.47-1.65c-0.34-0.1-0.41-0.55-0.13-0.76l4.64-3.34c0.11-0.08,0.18-0.22,0.18-0.36l-0.12-5.72
		c-0.01-0.35,0.39-0.56,0.68-0.35l4.61,3.38c0.11,0.08,0.26,0.11,0.39,0.06l5.4-1.88c0.33-0.12,0.66,0.2,0.55,0.54l-1.79,5.43
		c-0.04,0.13-0.02,0.28,0.07,0.39l3.46,4.55C1007.77,728.6,1007.57,729,1007.21,729z"/>
	<line class="st4" x1="1010.17" y1="713.1" x2="1031.17" y2="693.88"/>
</g>
<g>
	<path class="st1" d="M250.03,454l-5.72-0.03c-0.14,0-0.27,0.07-0.35,0.18l-3.26,4.69c-0.2,0.29-0.65,0.22-0.76-0.11l-1.74-5.45
		c-0.04-0.13-0.15-0.24-0.28-0.28l-5.47-1.65c-0.34-0.1-0.41-0.55-0.13-0.76l4.64-3.34c0.11-0.08,0.18-0.22,0.18-0.36l-0.12-5.72
		c-0.01-0.35,0.39-0.56,0.68-0.35l4.61,3.38c0.11,0.08,0.26,0.11,0.39,0.06l5.4-1.88c0.33-0.12,0.66,0.2,0.55,0.54l-1.79,5.43
		c-0.04,0.13-0.02,0.28,0.07,0.39l3.46,4.55C250.58,453.6,250.38,454,250.03,454z"/>
	<line class="st5" x1="252.98" y1="438.1" x2="273.98" y2="418.88"/>
</g>
</svg>
