<?xml version="1.0" encoding="utf-8"?>
<!-- Generator: Adobe Illustrator 25.0.1, SVG Export Plug-In . SVG Version: 6.00 Build 0)  -->
<svg version="1.1" id="레이어_1" xmlns="http://www.w3.org/2000/svg" xmlns:xlink="http://www.w3.org/1999/xlink" x="0px"
	 y="0px" viewBox="0 0 252 50" style="enable-background:new 0 0 252 50;" xml:space="preserve">
<style type="text/css">
	.st0{fill:#1C1C1C;}
	.st1{fill:#FFF5E0;}
	.st2{fill:#FFC900;}
</style>
<g>
	<path class="st0" d="M247.16,8.27l-6.83,0c0,0,0,0,0,0c-1.28,0-2.51,0.5-3.42,1.39c-0.91,0.89-1.42,2.1-1.42,3.36l0,4.76
		l-9.04-8.25c-0.9-0.82-2.07-1.27-3.29-1.27h-7.46c0,0,0,0,0,0c-2.03,0-3.77,1.23-4.49,2.98c-1.87-1.17-4.05-2.06-6.52-2.65
		c-2.5-0.6-5.3-0.91-8.32-0.91c0,0,0,0,0,0c-3.03,0-5.83,0.3-8.33,0.9c-2.37,0.57-4.48,1.4-6.31,2.49
		c-0.44-0.39-0.96-0.71-1.54-0.92c-0.99-0.37-2-0.71-3.01-1c-1.03-0.3-2.11-0.57-3.21-0.79c-1.13-0.23-2.32-0.4-3.55-0.51
		c-1.21-0.11-2.52-0.17-3.89-0.17c0,0,0,0,0,0c-2.95,0-5.72,0.29-8.24,0.87c-2.71,0.62-5.12,1.58-7.16,2.88
		c-0.17,0.11-0.34,0.23-0.51,0.34c-0.58-0.82-1.42-1.46-2.43-1.8c-2.01-0.67-4.22-1.22-6.59-1.64c-2.41-0.43-5.04-0.65-7.81-0.65
		c-1.82,0-3.62,0.11-5.35,0.34c-1.79,0.23-3.51,0.6-5.11,1.09c-1.68,0.52-3.25,1.19-4.67,2.01c-0.17,0.1-0.33,0.19-0.49,0.29
		c-0.67-1.84-2.45-3.15-4.55-3.15h-6.83c0,0,0,0,0,0c-1.28,0-2.51,0.5-3.42,1.39s-1.42,2.1-1.42,3.36l0,4.76l-9.04-8.25
		c-0.9-0.82-2.07-1.27-3.29-1.27l-7.46,0c0,0,0,0,0,0c-0.67,0-1.31,0.14-1.89,0.38c-0.58-0.24-1.22-0.38-1.89-0.38h-6.87
		c0,0,0,0,0,0c-1.28,0-2.51,0.5-3.42,1.39c-0.23,0.23-0.44,0.48-0.62,0.75c-1.06-0.62-2.27-1.11-3.62-1.47
		c-1.72-0.46-3.67-0.68-5.97-0.68l-17.21,0c-1.59,0-3,0.76-3.88,1.92c-0.28-0.17-0.58-0.32-0.88-0.46C35.02,9.32,34.06,9,33.06,8.77
		c-0.89-0.2-1.84-0.34-2.81-0.41c-0.85-0.06-1.72-0.1-2.56-0.1l-5.3,0c-0.25-0.59-0.62-1.15-1.1-1.65
		C15.94,1.14,11.07-0.95,6.82,0.4c-3.61,1.15-5.97,4-6.63,8.04c-0.39,2.36-0.17,3.67,0.65,6.18c0.19,0.59,0.42,1.21,0.67,1.83
		C2.45,18.8,3.45,20.76,4.74,23l0,12.73c0,2.63,2.17,4.75,4.84,4.75l7.23,0c0.9,0.97,1.86,1.93,2.88,2.86
		c6.3,5.74,10.88,6.63,13.05,6.66l0.12,0c3.34,0,6.26-1.64,7.82-4.38c0.85-1.5,1.21-3.21,1.1-5.14h5.75c0,0,0,0,0,0
		c2.67,0,4.84-2.13,4.84-4.75l0-3.61h0.51l6.26,6.8c0.92,1,2.22,1.57,3.59,1.57l8.03,0c0,0,0,0,0,0c0.13,0,0.27-0.01,0.4-0.02
		c0.12,0.01,0.23,0.02,0.35,0.02l6.87,0c0,0,0,0,0,0c0.66,0,1.3-0.13,1.89-0.38c0.59,0.25,1.24,0.38,1.89,0.38l6.87,0c0,0,0,0,0,0
		c2.67,0,4.84-2.13,4.84-4.75l0-4.72l9.03,8.21c0.89,0.81,2.07,1.27,3.29,1.27l7.44,0c0,0,0,0,0,0c1.28,0,2.51-0.5,3.42-1.39
		c0.48-0.47,0.85-1.04,1.09-1.66c0.11,0.07,0.21,0.13,0.32,0.2c1.41,0.82,2.97,1.5,4.64,2.03c1.59,0.5,3.31,0.86,5.11,1.1
		c1.73,0.22,3.56,0.34,5.43,0.34c1.18,0,2.46-0.05,3.78-0.15c1.3-0.09,2.61-0.23,3.91-0.4c1.3-0.17,2.59-0.39,3.82-0.63
		c1.28-0.25,2.46-0.55,3.52-0.87c1.01-0.3,1.85-0.91,2.45-1.7c2.04,1.29,4.44,2.26,7.16,2.88c2.52,0.58,5.3,0.87,8.25,0.87
		c1.37,0,2.68-0.06,3.89-0.17c1.23-0.11,2.43-0.29,3.55-0.51c1.1-0.22,2.18-0.48,3.21-0.79c0,0,0,0,0,0c1.01-0.3,2.02-0.63,3.01-1
		c0.58-0.22,1.1-0.53,1.54-0.92c1.82,1.09,3.94,1.93,6.3,2.49c2.51,0.6,5.31,0.9,8.34,0.9c3.03,0,5.83-0.3,8.32-0.9
		c2.47-0.59,4.66-1.49,6.53-2.66c0.24,0.58,0.6,1.11,1.06,1.56c0.91,0.89,2.14,1.39,3.42,1.39l6.87,0c0,0,0,0,0,0
		c2.67,0,4.84-2.13,4.84-4.75l0-4.72l9.03,8.21c0.89,0.81,2.07,1.27,3.29,1.27h7.44c0,0,0,0,0,0c1.28,0,2.51-0.5,3.42-1.39
		c0.91-0.89,1.42-2.1,1.42-3.36l0-22.71C252,10.4,249.83,8.27,247.16,8.27z M172.35,26.02c-0.72,0.2-1.55,0.37-2.45,0.5
		c-0.89,0.13-1.93,0.19-3.1,0.19c-1.17,0-2.19-0.07-3.02-0.21c-0.77-0.13-1.41-0.29-1.92-0.49c-0.49-0.19-0.73-0.35-0.8-0.41
		c-0.2-0.16-0.29-0.28-0.33-0.34c-0.07-0.1-0.09-0.17-0.1-0.22c-0.05-0.22-0.08-0.43-0.08-0.65c0-0.31,0.06-0.6,0.18-0.9
		c0,0,0.05-0.11,0.3-0.3c0.16-0.12,0.64-0.44,1.73-0.74c0.68-0.19,1.94-0.41,4.06-0.41c1.15,0,2.18,0.07,3.05,0.2
		c0.91,0.14,1.74,0.32,2.47,0.52c0.69,0.2,1.32,0.42,1.87,0.65c-0.02,0.32-0.03,0.65-0.03,0.97c0,0.33,0.01,0.66,0.03,0.99
		C173.65,25.61,173.03,25.83,172.35,26.02z M201.65,25.35c-0.02,0.05-0.1,0.15-0.26,0.3c-0.09,0.08-0.47,0.37-1.42,0.66
		c-0.58,0.18-1.68,0.4-3.61,0.4c-1.08,0-2-0.07-2.76-0.21c-0.83-0.15-1.35-0.33-1.63-0.46c-0.41-0.18-0.6-0.32-0.69-0.4
		c-0.17-0.15-0.24-0.25-0.26-0.29c-0.06-0.1-0.1-0.19-0.12-0.29c-0.05-0.23-0.08-0.45-0.08-0.67c0-0.2,0.03-0.41,0.08-0.64
		c0.02-0.1,0.06-0.19,0.12-0.29c0.02-0.04,0.1-0.15,0.28-0.31c0.08-0.07,0.29-0.23,0.69-0.41c0.28-0.13,0.79-0.31,1.61-0.46
		c0.75-0.14,1.68-0.21,2.75-0.21c0,0,0,0,0,0c1.93,0,3.03,0.22,3.61,0.4c0.95,0.3,1.33,0.58,1.42,0.66c0.16,0.14,0.24,0.25,0.26,0.3
		c0.12,0.34,0.18,0.65,0.18,0.96C201.83,24.7,201.77,25.02,201.65,25.35z"/>
	<g>
		<path class="st1" d="M38.57,29.46c0,0.88-0.13,1.65-0.39,2.3c-0.26,0.65-0.62,1.21-1.08,1.68c-0.46,0.47-1.02,0.85-1.67,1.14
			c-0.65,0.29-1.36,0.52-2.15,0.69c-0.78,0.17-1.62,0.29-2.51,0.36c-0.89,0.07-1.81,0.1-2.76,0.1l-18.45,0l0-22.71l18.12,0
			c0.73,0,1.46,0.03,2.19,0.08c0.73,0.06,1.43,0.16,2.1,0.31c0.67,0.15,1.29,0.36,1.86,0.62c0.57,0.26,1.07,0.61,1.5,1.04
			c0.43,0.43,0.76,0.95,1,1.55c0.24,0.61,0.36,1.32,0.36,2.15c0,1.48-0.41,2.65-1.22,3.51c-0.81,0.86-2.1,1.44-3.85,1.73
			c1.23,0.08,2.29,0.25,3.17,0.5c0.88,0.26,1.6,0.61,2.16,1.06c0.56,0.45,0.96,0.99,1.22,1.64C38.45,27.85,38.57,28.6,38.57,29.46z
			 M31.6,28.75c0-0.52-0.1-0.93-0.3-1.25c-0.2-0.31-0.51-0.56-0.93-0.73c-0.42-0.17-0.96-0.28-1.63-0.34
			c-0.67-0.05-1.46-0.08-2.39-0.08l-9.92,0l0,4.81l9.92,0c0.93,0,1.72-0.03,2.39-0.08c0.67-0.06,1.21-0.17,1.63-0.35
			c0.42-0.18,0.73-0.42,0.93-0.74C31.5,29.69,31.6,29.27,31.6,28.75z M30.01,19.75c0-0.29-0.05-0.56-0.15-0.82
			c-0.1-0.26-0.28-0.49-0.54-0.69c-0.26-0.2-0.61-0.36-1.05-0.48c-0.44-0.12-1.01-0.18-1.7-0.18l-10.12,0l0,4.26l10.12,0
			c0.69,0,1.26-0.05,1.7-0.17c0.44-0.11,0.8-0.26,1.05-0.45c0.26-0.19,0.44-0.41,0.54-0.67C29.96,20.31,30.01,20.03,30.01,19.75z"/>
		<path class="st1" d="M47.53,35.73l-6.87,0l0-22.71l17.21,0c1.85,0,3.42,0.17,4.71,0.51c1.29,0.34,2.34,0.83,3.15,1.45
			c0.81,0.63,1.39,1.39,1.76,2.27c0.36,0.89,0.55,1.88,0.55,2.97c0,0.96-0.15,1.8-0.45,2.51c-0.3,0.72-0.71,1.33-1.22,1.84
			c-0.51,0.51-1.11,0.94-1.79,1.3c-0.68,0.35-1.39,0.64-2.15,0.88l8.33,8.97l-8.03,0l-7.7-8.36l-7.5,0L47.53,35.73z M61.09,20.19
			c0-0.44-0.06-0.82-0.19-1.12c-0.13-0.31-0.35-0.56-0.68-0.75c-0.32-0.19-0.75-0.33-1.29-0.42c-0.54-0.09-1.21-0.13-2.01-0.13
			l-9.4,0l0,4.86l9.4,0c0.8,0,1.47-0.04,2.01-0.13c0.54-0.09,0.97-0.23,1.29-0.42c0.32-0.19,0.55-0.44,0.68-0.75
			C61.03,21.01,61.09,20.63,61.09,20.19z"/>
		<path class="st1" d="M71.51,35.73l0-22.71l6.87,0l0,22.71L71.51,35.73z"/>
		<path class="st1" d="M106.18,35.73l-17.16-15.6l0,15.6l-6.87,0l0-22.71l7.46,0l17.17,15.67l0-15.67l6.83,0l0,22.71L106.18,35.73z"
			/>
		<path class="st1" d="M133.79,12.44c2.49,0,4.81,0.19,6.95,0.57c2.14,0.38,4.11,0.87,5.89,1.46l0,5.55
			c-0.7-0.35-1.5-0.69-2.38-1.02c-0.88-0.33-1.84-0.62-2.88-0.88c-1.04-0.25-2.15-0.46-3.33-0.61c-1.18-0.15-2.43-0.23-3.74-0.23
			c-1.63,0-3.05,0.1-4.26,0.31c-1.21,0.21-2.25,0.49-3.11,0.84c-0.86,0.35-1.57,0.76-2.13,1.23c-0.56,0.47-0.99,0.97-1.31,1.5
			c-0.32,0.53-0.54,1.07-0.67,1.62c-0.12,0.55-0.19,1.09-0.19,1.6c0,0.45,0.05,0.94,0.16,1.47c0.1,0.53,0.3,1.06,0.59,1.59
			c0.29,0.53,0.69,1.04,1.21,1.52c0.52,0.48,1.19,0.91,2.03,1.29c0.83,0.37,1.84,0.68,3.01,0.9c1.17,0.23,2.57,0.34,4.18,0.34
			c0.81,0,1.52-0.02,2.13-0.07c0.6-0.04,1.16-0.1,1.66-0.18c0.5-0.08,0.97-0.17,1.41-0.28c0.44-0.11,0.89-0.23,1.36-0.35l0-2.74
			l-7.7,0l0-4.97l14.56,0l0,11.6c-0.91,0.28-1.93,0.53-3.06,0.75c-1.13,0.23-2.29,0.42-3.5,0.58c-1.2,0.16-2.41,0.28-3.62,0.37
			c-1.21,0.09-2.35,0.13-3.42,0.13c-1.67,0-3.26-0.1-4.79-0.3c-1.53-0.2-2.96-0.5-4.28-0.92c-1.33-0.41-2.54-0.94-3.63-1.58
			c-1.09-0.64-2.02-1.4-2.79-2.28c-0.77-0.88-1.37-1.89-1.8-3.03c-0.43-1.14-0.64-2.42-0.64-3.84c0-1.41,0.22-2.69,0.67-3.83
			c0.44-1.15,1.06-2.16,1.86-3.04c0.8-0.88,1.75-1.64,2.87-2.28c1.12-0.64,2.34-1.16,3.68-1.58c1.34-0.41,2.77-0.72,4.29-0.92
			C130.6,12.54,132.17,12.44,133.79,12.44z"/>
		<path class="st1" d="M175.79,35.07c-0.9,0.26-1.83,0.49-2.79,0.69c-0.96,0.19-1.98,0.34-3.04,0.44c-1.07,0.1-2.21,0.15-3.43,0.15
			c-2.59,0-4.98-0.25-7.15-0.74c-2.18-0.5-4.05-1.24-5.63-2.24c-1.57-1-2.8-2.24-3.67-3.73c-0.88-1.49-1.31-3.24-1.31-5.23
			c0-1.99,0.44-3.74,1.31-5.23c0.88-1.49,2.1-2.74,3.67-3.73c1.57-1,3.45-1.74,5.63-2.24c2.18-0.5,4.56-0.74,7.15-0.74
			c1.22,0,2.37,0.05,3.43,0.15c1.07,0.1,2.08,0.25,3.04,0.44c0.96,0.19,1.89,0.42,2.79,0.69c0.9,0.26,1.8,0.56,2.68,0.89l0,5.52
			c-0.7-0.34-1.44-0.68-2.22-1.02c-0.78-0.34-1.63-0.64-2.57-0.91c-0.94-0.27-1.97-0.49-3.09-0.66c-1.12-0.17-2.39-0.26-3.79-0.26
			c-2.16,0-3.95,0.2-5.38,0.59c-1.42,0.4-2.56,0.93-3.41,1.59c-0.85,0.66-1.45,1.42-1.8,2.27c-0.35,0.85-0.52,1.74-0.52,2.65
			c0,0.61,0.07,1.2,0.22,1.79c0.15,0.59,0.39,1.15,0.74,1.67c0.35,0.52,0.8,1.01,1.35,1.45c0.56,0.44,1.25,0.82,2.07,1.14
			c0.83,0.32,1.79,0.57,2.9,0.75c1.1,0.18,2.38,0.27,3.82,0.27c1.41,0,2.67-0.08,3.79-0.24c1.12-0.16,2.15-0.37,3.09-0.64
			c0.94-0.26,1.8-0.56,2.57-0.9c0.78-0.34,1.52-0.68,2.22-1.03l0,5.52C177.59,34.51,176.69,34.8,175.79,35.07z"/>
		<path class="st1" d="M213.61,24.39c0,1.95-0.4,3.67-1.2,5.16c-0.8,1.49-1.95,2.74-3.44,3.74c-1.49,1-3.3,1.76-5.43,2.27
			c-2.13,0.51-4.52,0.77-7.17,0.77c-2.65,0-5.05-0.26-7.19-0.77c-2.14-0.51-3.96-1.27-5.47-2.27c-1.51-1-2.66-2.25-3.48-3.74
			c-0.81-1.49-1.22-3.21-1.22-5.16c0-1.95,0.41-3.67,1.22-5.16c0.81-1.49,1.97-2.74,3.48-3.74c1.51-1,3.33-1.76,5.47-2.27
			c2.14-0.51,4.54-0.77,7.19-0.77c2.65,0,5.04,0.26,7.17,0.77s3.94,1.27,5.43,2.27c1.49,1,2.64,2.25,3.44,3.74
			C213.21,20.72,213.61,22.44,213.61,24.39z M206.67,24.39c0-0.85-0.15-1.69-0.45-2.54c-0.3-0.84-0.84-1.6-1.61-2.27
			c-0.77-0.67-1.82-1.22-3.16-1.64c-1.33-0.42-3.03-0.63-5.09-0.63c-1.38,0-2.6,0.1-3.65,0.29c-1.05,0.19-1.96,0.46-2.72,0.8
			c-0.77,0.34-1.41,0.74-1.92,1.2c-0.52,0.46-0.93,0.95-1.24,1.47c-0.31,0.52-0.53,1.07-0.66,1.64c-0.13,0.57-0.19,1.13-0.19,1.68
			c0,0.56,0.06,1.13,0.19,1.7c0.13,0.57,0.35,1.12,0.66,1.64c0.31,0.52,0.72,1.01,1.24,1.46c0.52,0.45,1.16,0.85,1.92,1.18
			c0.76,0.34,1.67,0.6,2.72,0.79c1.05,0.19,2.26,0.29,3.65,0.29c2.06,0,3.76-0.21,5.09-0.63c1.33-0.42,2.38-0.96,3.16-1.64
			c0.77-0.67,1.31-1.43,1.61-2.27C206.52,26.09,206.67,25.24,206.67,24.39z"/>
		<path class="st1" d="M239.72,35.73l-17.16-15.6l0,15.6l-6.87,0l0-22.71l7.46,0l17.17,15.67l0-15.67l6.83,0l0,22.71L239.72,35.73z"
			/>
	</g>
	<path class="st2" d="M35.67,36.22c-0.07-0.15-0.2-0.27-0.38-0.34c-0.16-0.06-0.36-0.05-0.52,0.02c-0.27,0.12-0.42,0.41-0.37,0.69
		c0.14,0.8,0.19,2.65-0.51,3.3c-0.29,0.26-0.71,0.33-1.28,0.19c-1.15-0.3-3.54-1.67-6.07-3.98c-4.81-4.38-8.12-9.82-11.62-15.59
		l-0.38-0.62c-1.74-2.84-4.36-7.13-3.94-9.68c0.07-0.41,0.33-0.76,0.69-0.92c0.12-0.05,0.24-0.09,0.38-0.12
		c2.09-0.42,5.18,1.62,5.31,1.71c0.28,0.18,0.65,0.13,0.87-0.12c0.22-0.25,0.2-0.62-0.03-0.86C15.08,7.12,11.22,4,8.31,4.92
		C6.46,5.51,5.33,6.95,4.96,9.19c-0.23,1.42-0.17,1.98,0.48,3.97c0.16,0.49,0.35,1.01,0.56,1.54c1.17,2.91,2.46,5.21,4.42,8.44
		c3.7,6.08,7.19,11.83,12.55,16.71c2.84,2.58,6.91,5.36,9.81,5.39c0.02,0,0.04,0,0.06,0c2.16,0,3.18-1.21,3.59-1.94
		C37.06,42.22,37.42,40.11,35.67,36.22z"/>
</g>
</svg>
